<svg width="269.000000" height="83.000000" viewBox="0 0 269 83" fill="none" xmlns="http://www.w3.org/2000/svg" xmlns:xlink="http://www.w3.org/1999/xlink">
	<desc>
	</desc>
	<defs>
		<clipPath id="clip504_12179">
			<rect id="Activity" rx="6.386719" width="269.519531" height="83.027344" transform="translate(-0.847656 -0.601562)" fill="white" fill-opacity="0"/>
		</clipPath>
	</defs>
	<rect id="Activity" rx="6.386719" width="269.519531" height="83.027344" transform="translate(-0.847656 -0.601562)" fill="#FFFFFF" fill-opacity="1.000000"/>
	<g clip-path="url(#clip504_12179)">
		<path id="3" d="M14.35 15.05C14.35 15.98 13.51 16.66 12.37 16.66C11.25 16.66 10.44 16.04 10.41 15.13L11.26 15.13C11.29 15.62 11.77 15.94 12.37 15.94C13.02 15.94 13.5 15.57 13.5 15.03C13.5 14.46 13.05 14.07 12.28 14.07L11.81 14.07L11.81 13.39L12.28 13.39C12.89 13.39 13.33 13.03 13.32 12.49C13.33 11.98 12.95 11.64 12.38 11.64C11.84 11.64 11.36 11.94 11.34 12.46L10.52 12.46C10.55 11.55 11.37 10.93 12.4 10.93C13.47 10.93 14.14 11.63 14.14 12.45C14.14 13.08 13.76 13.53 13.18 13.68L13.18 13.73C13.92 13.84 14.35 14.35 14.35 15.05Z" fill="#232340" fill-opacity="1.000000" fill-rule="evenodd"/>
		<path id="2" d="M14.22 38.3L10.55 38.3L10.55 37.69L12.44 35.73C13.04 35.1 13.33 34.75 13.33 34.25C13.33 33.7 12.9 33.35 12.33 33.35C11.73 33.35 11.35 33.74 11.35 34.34L10.55 34.34C10.55 33.32 11.31 32.65 12.35 32.65C13.4 32.65 14.13 33.33 14.13 34.23C14.13 34.85 13.84 35.35 12.82 36.38L11.71 37.54L11.71 37.58L14.22 37.58L14.22 38.3Z" fill="#232340" fill-opacity="1.000000" fill-rule="evenodd"/>
		<path id="1" d="M12.39 54.44L13.21 54.44L13.21 60.01L12.36 60.01L12.36 55.28L12.33 55.28L11 56.15L11 55.35L12.39 54.44Z" fill="#232340" fill-opacity="1.000000" fill-rule="evenodd"/>
		<line id="Line 1" x1="27.518555" y1="9.617188" x2="27.518555" y2="60.710938" stroke="#F5F5F7" stroke-opacity="1.000000" stroke-width="0.638672"/>
		<path id="S" d="M29.16 68.71L28.35 68.71C28.29 68.19 27.83 67.89 27.19 67.89C26.51 67.89 26.07 68.24 26.07 68.72C26.07 69.25 26.65 69.45 27.09 69.57L27.63 69.71C28.34 69.88 29.23 70.27 29.23 71.28C29.23 72.22 28.48 72.91 27.17 72.91C25.92 72.91 25.14 72.28 25.09 71.28L25.93 71.28C25.98 71.88 26.52 72.17 27.17 72.17C27.88 72.17 28.4 71.81 28.4 71.27C28.4 70.77 27.94 70.58 27.35 70.42L26.69 70.24C25.79 70 25.24 69.54 25.24 68.77C25.24 67.8 26.09 67.16 27.21 67.16C28.34 67.16 29.13 67.81 29.16 68.71Z" fill="#232340" fill-opacity="1.000000" fill-rule="evenodd"/>
		<line id="Line 2" x1="66.090820" y1="9.617188" x2="66.090820" y2="60.710938" stroke="#F5F5F7" stroke-opacity="1.000000" stroke-width="0.638672"/>
		<path id="M" d="M62.88 72.82L62.88 67.24L63.9 67.24L65.67 71.57L65.74 71.57L67.51 67.24L68.53 67.24L68.53 72.82L67.73 72.82L67.73 68.78L67.68 68.78L66.04 72.81L65.37 72.81L63.73 68.78L63.68 68.78L63.68 72.82L62.88 72.82Z" fill="#232340" fill-opacity="1.000000" fill-rule="evenodd"/>
		<line id="Line 3" x1="104.663086" y1="9.617188" x2="104.663086" y2="60.710938" stroke="#F5F5F7" stroke-opacity="1.000000" stroke-width="0.638672"/>
		<path id="T" d="M103.91 67.97L102.18 67.97L102.18 67.24L106.49 67.24L106.49 67.97L104.75 67.97L104.75 72.82L103.91 72.82L103.91 67.97Z" fill="#232340" fill-opacity="1.000000" fill-rule="evenodd"/>
		<line id="Line 4" x1="143.735352" y1="9.617188" x2="143.735352" y2="60.710938" stroke="#F5F5F7" stroke-opacity="1.000000" stroke-width="0.638672"/>
		<path id="W" d="M141.96 72.82L141.12 72.82L139.57 67.24L140.45 67.24L141.54 71.56L141.59 71.56L142.72 67.24L143.6 67.24L144.73 71.56L144.78 71.56L145.86 67.24L146.75 67.24L145.2 72.82L144.35 72.82L143.18 68.64L143.14 68.64L141.96 72.82Z" fill="#232340" fill-opacity="1.000000" fill-rule="evenodd"/>
		<line id="Line 5" x1="182.807617" y1="9.617188" x2="182.807617" y2="60.710938" stroke="#F5F5F7" stroke-opacity="1.000000" stroke-width="0.638672"/>
		<path id="T" d="M182.06 67.97L180.32 67.97L180.32 67.24L184.64 67.24L184.64 67.97L182.9 67.97L182.9 72.82L182.06 72.82L182.06 67.97Z" fill="#232340" fill-opacity="1.000000" fill-rule="evenodd"/>
		<line id="Line 6" x1="220.379883" y1="9.617188" x2="220.379883" y2="60.710938" stroke="#F5F5F7" stroke-opacity="1.000000" stroke-width="0.638672"/>
		<path id="F" d="M219.01 72.82L218.17 72.82L218.17 67.24L221.63 67.24L221.63 67.97L219.01 67.97L219.01 69.66L221.38 69.66L221.38 70.38L219.01 70.38L219.01 72.82Z" fill="#232340" fill-opacity="1.000000" fill-rule="evenodd"/>
		<line id="Line 7" x1="257.952148" y1="9.617188" x2="257.952148" y2="60.710938" stroke="#F5F5F7" stroke-opacity="1.000000" stroke-width="0.638672"/>
		<path id="S" d="M259.59 68.71L258.78 68.71C258.72 68.19 258.27 67.89 257.63 67.89C256.94 67.89 256.51 68.24 256.51 68.72C256.51 69.25 257.09 69.45 257.52 69.57L258.06 69.71C258.77 69.88 259.67 70.27 259.67 71.28C259.67 72.22 258.91 72.91 257.6 72.91C256.35 72.91 255.58 72.28 255.52 71.28L256.36 71.28C256.41 71.88 256.95 72.17 257.6 72.17C258.31 72.17 258.83 71.81 258.83 71.27C258.83 70.77 258.37 70.58 257.78 70.42L257.12 70.24C256.22 70 255.67 69.54 255.67 68.77C255.67 67.8 256.53 67.16 257.64 67.16C258.78 67.16 259.57 67.81 259.59 68.71Z" fill="#232340" fill-opacity="1.000000" fill-rule="evenodd"/>
		<rect id="cart" width="228.644531" height="46.623047" transform="translate(27.253906 14.726562)" fill="#FFFFFF" fill-opacity="0"/>
		<path id="shadow" d="M27.25 66.45L55.71 51.25C61.18 48.32 67.74 48.23 73.3 51.01L92.97 60.83C99.8 64.25 108 63.28 113.85 58.37L132.24 42.94C138.66 37.55 147.83 36.96 154.89 41.47L172.57 52.79C178.31 56.47 185.56 56.81 191.63 53.71L213.55 42.49C217.11 40.66 221.16 40 225.12 40.59L255.89 45.2" stroke="#7676B2" stroke-opacity="0.200000" stroke-width="1.916016" stroke-linecap="round"/>
		<path id="cart" d="M27.25 61.05L54.76 43.43C61.65 39.03 70.57 39.47 76.98 44.55L89.65 54.58C97.94 61.14 109.97 59.75 116.55 51.48L129.94 34.61C136.84 25.92 149.66 24.9 157.85 32.37L171.86 45.14C177.62 50.39 186.01 51.63 193.04 48.26L213.29 38.55C216.68 36.93 220.47 36.34 224.19 36.85L255.89 41.22" stroke="#232340" stroke-opacity="1.000000" stroke-width="1.916016" stroke-linecap="round"/>
	</g>
</svg>
