<svg width="16.000000" height="15.000000" viewBox="0 0 16 15" fill="none" xmlns="http://www.w3.org/2000/svg" xmlns:xlink="http://www.w3.org/1999/xlink">
	<desc>
	</desc>
	<defs/>
	<path id="Vector" d="M13.33 9.39C13.33 10.11 12.94 10.77 12.32 11.14L8.53 13.33C7.91 13.69 7.14 13.69 6.52 13.33L2.72 11.14C2.1 10.78 1.72 10.12 1.72 9.39L1.72 5.03C1.72 4.31 2.1 3.65 2.72 3.28L6.52 1.09C7.14 0.73 7.9 0.73 8.53 1.09L12.32 3.28C12.94 3.65 13.33 4.3 13.33 5.03L13.33 9.39Z" stroke="#7676B2" stroke-opacity="1.000000" stroke-width="0.958008" stroke-linejoin="round"/>
	<path id="Vector" d="M7.53 6.57C6.7 6.57 6.04 5.9 6.04 5.08C6.04 4.26 6.7 3.59 7.53 3.59C8.35 3.59 9.01 4.26 9.01 5.08C9.01 5.9 8.35 6.57 7.53 6.57Z" stroke="#7676B2" stroke-opacity="1.000000" stroke-width="0.958008" stroke-linejoin="round"/>
	<path id="Vector" d="M10.08 10.19C10.08 9.04 8.94 8.1 7.53 8.1C6.11 8.1 4.97 9.04 4.97 10.19" stroke="#7676B2" stroke-opacity="1.000000" stroke-width="0.958008" stroke-linejoin="round" stroke-linecap="round"/>
	<g opacity="0.000000"/>
</svg>
