<svg width="12.000000" height="12.000000" viewBox="0 0 12 12" fill="none" xmlns="http://www.w3.org/2000/svg" xmlns:xlink="http://www.w3.org/1999/xlink">
	<desc>
	</desc>
	<defs/>
	<path id="Star 1" d="M5.17 0.03L4.2 3.02C4.11 3.28 3.87 3.46 3.59 3.46L0.45 3.46C-0.17 3.46 -0.42 4.25 0.08 4.61L2.62 6.46C2.84 6.62 2.93 6.91 2.85 7.17L1.88 10.16C1.69 10.75 2.36 11.24 2.86 10.87L5.4 9.03C5.62 8.86 5.93 8.86 6.15 9.03L8.69 10.87C9.19 11.24 9.86 10.75 9.67 10.16L8.7 7.17C8.62 6.91 8.71 6.62 8.94 6.46L11.48 4.61C11.98 4.25 11.72 3.46 11.1 3.46L7.96 3.46C7.68 3.46 7.44 3.28 7.35 3.02L6.38 0.03C6.19 -0.56 5.36 -0.56 5.17 0.03Z" fill="#FFBA79" fill-opacity="1.000000" fill-rule="evenodd"/>
</svg>
