<svg width="16.000000" height="16.000000" viewBox="0 0 16 16" fill="none" xmlns="http://www.w3.org/2000/svg" xmlns:xlink="http://www.w3.org/1999/xlink">
	<desc>
	</desc>
	<defs/>
	<path id="Vector" d="M4.97 12.11C2.42 12.11 1.14 11.47 1.14 8.28L1.14 5.08C1.14 2.53 2.42 1.25 4.97 1.25L10.08 1.25C12.64 1.25 13.91 2.53 13.91 5.08L13.91 8.28C13.91 10.83 12.64 12.11 10.08 12.11L9.76 12.11C9.56 12.11 9.37 12.21 9.25 12.37L8.29 13.64C7.87 14.21 7.18 14.21 6.76 13.64L5.8 12.37C5.7 12.23 5.46 12.11 5.29 12.11L4.97 12.11Z" stroke="#7676B2" stroke-opacity="1.000000" stroke-width="0.958008" stroke-linejoin="round"/>
	<path id="Vector" d="M10.08 7L10.08 7" stroke="#7676B2" stroke-opacity="1.000000" stroke-width="1.277344" stroke-linejoin="round" stroke-linecap="round"/>
	<path id="Vector" d="M7.52 7L7.53 7" stroke="#7676B2" stroke-opacity="1.000000" stroke-width="1.277344" stroke-linejoin="round" stroke-linecap="round"/>
	<path id="Vector" d="M4.97 7L4.97 7" stroke="#7676B2" stroke-opacity="1.000000" stroke-width="1.277344" stroke-linejoin="round" stroke-linecap="round"/>
	<g opacity="0.000000"/>
</svg>
