<svg width="15.000000" height="15.000000" viewBox="0 0 15 15" fill="none" xmlns="http://www.w3.org/2000/svg" xmlns:xlink="http://www.w3.org/1999/xlink">
	<desc>
	</desc>
	<defs/>
	<path id="Vector" d="M12.57 8.5C12.03 10.81 10.97 11.74 8.98 11.55C8.66 11.52 8.32 11.46 7.95 11.37L6.87 11.12C4.21 10.49 3.39 9.17 4.01 6.5L4.64 3.83C4.77 3.28 4.92 2.81 5.11 2.42C5.86 0.87 7.13 0.46 9.26 0.96L10.33 1.21C13 1.84 13.82 3.16 13.2 5.83L12.57 8.5Z" stroke="#54577A" stroke-opacity="1.000000" stroke-width="0.958008" stroke-linejoin="round"/>
	<path id="Vector" d="M7.48 12.24L6.47 12.57C3.94 13.39 2.6 12.7 1.78 10.17L0.96 7.64C0.14 5.11 0.82 3.77 3.35 2.95L4.36 2.62C4.62 2.54 4.87 2.46 5.11 2.42C4.92 2.81 4.77 3.28 4.64 3.83L4.01 6.5C3.39 9.17 4.21 10.49 6.87 11.12L7.95 11.37C8.32 11.46 8.66 11.52 8.98 11.55C8.58 11.82 8.09 12.04 7.48 12.24Z" stroke="#54577A" stroke-opacity="1.000000" stroke-width="0.958008" stroke-linejoin="round"/>
	<path id="Vector" d="M7.43 4.61L10.53 5.4" stroke="#54577A" stroke-opacity="1.000000" stroke-width="0.958008" stroke-linejoin="round" stroke-linecap="round"/>
	<path id="Vector" d="M6.81 7.08L8.66 7.56" stroke="#54577A" stroke-opacity="1.000000" stroke-width="0.958008" stroke-linejoin="round" stroke-linecap="round"/>
	<g opacity="0.000000"/>
</svg>
