<svg width="244.000000" height="26.000000" viewBox="0 0 244 26" fill="none" xmlns="http://www.w3.org/2000/svg" xmlns:xlink="http://www.w3.org/1999/xlink">
	<desc>
	</desc>
	<defs/>
	<path id="icon/file/download_done_24px" d="M3.19 9.32501C3.96997 10.105 5.22998 10.105 6.01001 9.33499L13.01 2.405C13.56 1.86499 13.56 0.984985 13.02 0.445007L12.98 0.404999C12.44 -0.13501 11.57 -0.13501 11.03 0.404999L4.59998 6.83499L2.95001 5.185C2.42999 4.66501 1.57001 4.64499 1.03003 5.16501C0.460022 5.69501 0.450012 6.58499 1 7.13501L3.19 9.32501ZM13 13.435L1 13.435C0.450012 13.435 0 13.885 0 14.435C0 14.985 0.450012 15.435 1 15.435L13 15.435C13.55 15.435 14 14.985 14 14.435C14 13.885 13.55 13.435 13 13.435Z" clip-rule="evenodd" fill="#6D7D8B" fill-opacity="1.000000" fill-rule="evenodd"/>
	<path id="All the features you" d="M146.2 8.48Q146.49 8.74 147 8.74Q147.44 8.74 147.73 8.53Q147.77 8.49 147.81 8.45Q147.9 8.36 147.97 8.25Q148.11 8.02 148.11 7.7Q148.11 7.28 147.91 7.03Q147.87 6.98 147.82 6.93Q147.81 6.92 147.8 6.91Q147.52 6.66 147 6.66Q146.57 6.66 146.29 6.87Q146.24 6.9 146.19 6.95Q146.11 7.03 146.05 7.13Q145.9 7.37 145.9 7.7Q145.9 8.12 146.1 8.38Q146.14 8.42 146.19 8.47Q146.19 8.48 146.2 8.48ZM223.82 8.48Q224.11 8.74 224.62 8.74Q225.06 8.74 225.34 8.53Q225.39 8.49 225.43 8.45Q225.52 8.36 225.58 8.25Q225.72 8.02 225.72 7.7Q225.72 7.28 225.52 7.03Q225.48 6.98 225.43 6.93Q225.42 6.92 225.41 6.91Q225.13 6.66 224.62 6.66Q224.18 6.66 223.91 6.87Q223.85 6.9 223.81 6.95Q223.72 7.03 223.66 7.13Q223.52 7.37 223.52 7.7Q223.52 8.12 223.72 8.38Q223.76 8.42 223.8 8.47Q223.81 8.48 223.82 8.48ZM88.86 7.16L88.86 19L90.51 19L90.51 13.91Q90.51 13.6 90.6 13.33Q90.63 13.23 90.68 13.13Q90.75 12.98 90.84 12.84Q90.97 12.65 91.14 12.5Q91.18 12.46 91.23 12.42Q91.5 12.2 91.83 12.08Q92.23 11.92 92.71 11.92Q93.31 11.89 93.71 12.11Q93.81 12.16 93.89 12.23Q94.15 12.44 94.3 12.8Q94.49 13.27 94.49 13.99L94.49 19L96.14 19L96.14 13.87Q96.14 12.71 95.82 11.94Q95.57 11.34 95.13 10.98Q95 10.88 94.86 10.8Q94.22 10.42 93.26 10.42Q93.1 10.42 92.94 10.44Q92.44 10.49 91.95 10.72Q91.36 10.99 90.92 11.41Q90.88 11.44 90.84 11.48Q90.65 11.68 90.51 11.89L90.51 7.16L88.86 7.16ZM115.66 7.16L115.66 19L117.31 19L117.31 13.91Q117.31 13.6 117.4 13.33Q117.43 13.23 117.48 13.13Q117.55 12.98 117.64 12.84Q117.77 12.65 117.94 12.5Q117.98 12.46 118.03 12.42Q118.3 12.2 118.63 12.08Q119.03 11.92 119.52 11.92Q120.11 11.89 120.51 12.11Q120.61 12.16 120.69 12.23Q120.95 12.44 121.1 12.8Q121.29 13.27 121.29 13.99L121.29 19L122.94 19L122.94 13.87Q122.94 12.71 122.62 11.94Q122.37 11.34 121.93 10.98Q121.8 10.88 121.66 10.8Q121.02 10.42 120.06 10.42Q119.9 10.42 119.74 10.44Q119.24 10.49 118.75 10.72Q118.16 10.99 117.72 11.41Q117.68 11.44 117.64 11.48Q117.45 11.68 117.31 11.89L117.31 7.16L115.66 7.16ZM192.51 7.16L192.51 19L194.16 19L194.16 13.91Q194.16 13.6 194.24 13.33Q194.28 13.23 194.32 13.13Q194.4 12.98 194.49 12.84Q194.62 12.65 194.79 12.5Q194.83 12.46 194.88 12.42Q195.14 12.2 195.48 12.08Q195.88 11.92 196.36 11.92Q196.96 11.89 197.36 12.11Q197.45 12.16 197.54 12.23Q197.8 12.44 197.95 12.8Q198.14 13.27 198.14 13.99L198.14 19L199.79 19L199.79 13.87Q199.79 12.71 199.47 11.94Q199.22 11.34 198.78 10.98Q198.65 10.88 198.51 10.8Q197.87 10.42 196.91 10.42Q196.75 10.42 196.59 10.44Q196.08 10.49 195.59 10.72Q195.01 10.99 194.57 11.41Q194.53 11.44 194.49 11.48Q194.3 11.68 194.16 11.89L194.16 7.16L192.51 7.16ZM27.27 7.8L27.27 19L29 19L29 14.79L31.56 14.79L33.93 19L36.03 19.01L33.42 14.51Q33.63 14.43 33.82 14.32Q34.26 14.05 34.61 13.69Q34.89 13.41 35.1 13.06Q35.35 12.65 35.47 12.2Q35.58 11.8 35.58 11.36Q35.58 10.61 35.31 9.98Q35.22 9.75 35.1 9.55Q34.85 9.12 34.5 8.79Q34.19 8.49 33.81 8.27Q33.49 8.08 33.15 7.97Q32.63 7.8 32.04 7.8L27.27 7.8ZM136.35 12.19L136.35 19L138 19L138 12.19L139.95 12.19L139.95 10.6L138 10.6L138 8.45L136.35 8.45L136.35 10.6L134.6 10.6L134.6 12.19L136.35 12.19ZM187.4 12.19L187.4 19L189.05 19L189.05 12.19L191 12.19L191 10.6L189.05 10.6L189.05 8.45L187.4 8.45L187.4 10.6L185.66 10.6L185.66 12.19L187.4 12.19ZM229.03 12.19L229.03 19L230.68 19L230.68 12.19L232.64 12.19L232.64 10.6L230.68 10.6L230.68 8.45L229.03 8.45L229.03 10.6L227.29 10.6L227.29 12.19L229.03 12.19ZM32.2 13.12L29 13.12L29 9.46L31.75 9.46Q32.34 9.46 32.8 9.69Q32.81 9.7 32.82 9.7Q33.15 9.87 33.37 10.12Q33.47 10.23 33.55 10.37Q33.59 10.43 33.63 10.49Q33.82 10.87 33.82 11.35Q33.82 11.75 33.68 12.1Q33.65 12.18 33.61 12.25Q33.47 12.52 33.26 12.72Q33.16 12.81 33.04 12.89Q32.93 12.96 32.83 13Q32.54 13.12 32.2 13.12ZM39.34 18.63Q40.32 19.16 41.58 19.16Q42.17 19.16 42.78 18.99Q43.4 18.82 43.95 18.53Q44.51 18.24 44.89 17.86L44.06 16.69Q43.44 17.23 42.9 17.44Q42.36 17.65 41.74 17.65Q40.86 17.65 40.19 17.3Q39.81 17.1 39.54 16.82Q39.31 16.59 39.15 16.3Q38.87 15.81 38.8 15.19L45.23 15.19L45.24 14.48Q45.26 13.6 44.98 12.86Q44.74 12.22 44.32 11.73Q44.25 11.65 44.18 11.57Q44 11.39 43.8 11.23Q43.42 10.92 42.95 10.71Q42.82 10.65 42.68 10.61Q42.1 10.4 41.44 10.4Q40.51 10.4 39.71 10.73Q39.15 10.96 38.7 11.34Q38.52 11.49 38.35 11.66Q38.3 11.72 38.25 11.78Q37.76 12.34 37.47 13.08Q37.15 13.89 37.15 14.88Q37.15 16 37.6 16.88Q37.65 16.99 37.71 17.09Q37.94 17.48 38.25 17.8Q38.69 18.27 39.28 18.6Q39.31 18.62 39.34 18.63ZM38.86 13.87Q38.94 13.51 39.08 13.21Q39.27 12.83 39.56 12.56Q39.74 12.38 39.98 12.25Q40.57 11.92 41.44 11.92Q41.82 11.92 42.16 12.04Q42.3 12.09 42.44 12.16Q42.69 12.29 42.9 12.48Q43.07 12.63 43.21 12.82Q43.32 12.97 43.4 13.15Q43.53 13.43 43.56 13.76L43.56 13.87L38.86 13.87ZM56.38 18.63Q57.36 19.16 58.62 19.16Q59.21 19.16 59.82 18.99Q60.44 18.82 60.99 18.53Q61.55 18.24 61.93 17.86L61.1 16.69Q60.48 17.23 59.94 17.44Q59.4 17.65 58.78 17.65Q57.9 17.65 57.23 17.3Q56.85 17.1 56.58 16.82Q56.35 16.59 56.19 16.3Q55.91 15.81 55.84 15.19L62.27 15.19L62.28 14.48Q62.3 13.6 62.02 12.86Q61.78 12.22 61.36 11.73Q61.29 11.65 61.22 11.57Q61.04 11.39 60.84 11.23Q60.46 10.92 59.99 10.71Q59.86 10.65 59.72 10.61Q59.14 10.4 58.48 10.4Q57.55 10.4 56.75 10.73Q56.19 10.96 55.74 11.34Q55.56 11.49 55.39 11.66Q55.34 11.72 55.29 11.78Q54.8 12.34 54.51 13.08Q54.19 13.89 54.19 14.88Q54.19 16 54.64 16.88Q54.69 16.99 54.75 17.09Q54.98 17.48 55.29 17.8Q55.73 18.27 56.32 18.6Q56.35 18.62 56.38 18.63ZM55.9 13.87Q55.98 13.51 56.12 13.21Q56.31 12.83 56.6 12.56Q56.78 12.38 57.02 12.25Q57.61 11.92 58.48 11.92Q58.86 11.92 59.2 12.04Q59.34 12.09 59.48 12.16Q59.73 12.29 59.94 12.48Q60.11 12.63 60.25 12.82Q60.36 12.97 60.44 13.15Q60.57 13.43 60.6 13.76L60.6 13.87L55.9 13.87ZM203.71 18.63Q204.69 19.16 205.95 19.16Q206.54 19.16 207.15 18.99Q207.77 18.82 208.32 18.53Q208.88 18.24 209.26 17.86L208.43 16.69Q207.81 17.23 207.27 17.44Q206.73 17.65 206.11 17.65Q205.23 17.65 204.56 17.3Q204.18 17.1 203.9 16.82Q203.68 16.59 203.52 16.3Q203.24 15.81 203.17 15.19L209.59 15.19L209.61 14.48Q209.63 13.6 209.35 12.86Q209.11 12.22 208.69 11.73Q208.62 11.65 208.55 11.57Q208.37 11.39 208.17 11.23Q207.79 10.92 207.32 10.71Q207.19 10.65 207.05 10.61Q206.46 10.4 205.81 10.4Q204.88 10.4 204.08 10.73Q203.52 10.96 203.07 11.34Q202.89 11.49 202.72 11.66Q202.67 11.72 202.62 11.78Q202.13 12.34 201.84 13.08Q201.52 13.89 201.52 14.88Q201.52 16 201.97 16.88Q202.02 16.99 202.08 17.09Q202.31 17.48 202.61 17.8Q203.06 18.27 203.65 18.6Q203.68 18.62 203.71 18.63ZM203.23 13.87Q203.31 13.51 203.45 13.21Q203.64 12.83 203.93 12.56Q204.11 12.38 204.34 12.25Q204.94 11.92 205.81 11.92Q206.19 11.92 206.53 12.04Q206.67 12.09 206.81 12.16Q207.06 12.29 207.27 12.48Q207.44 12.63 207.58 12.82Q207.69 12.97 207.77 13.15Q207.9 13.43 207.93 13.76L207.93 13.87L203.23 13.87ZM235.74 18.63Q236.72 19.16 237.98 19.16Q238.57 19.16 239.18 18.99Q239.8 18.82 240.35 18.53Q240.91 18.24 241.29 17.86L240.46 16.69Q239.84 17.23 239.3 17.44Q238.76 17.65 238.14 17.65Q237.26 17.65 236.59 17.3Q236.21 17.1 235.94 16.82Q235.71 16.59 235.55 16.3Q235.27 15.81 235.2 15.19L241.63 15.19L241.64 14.48Q241.66 13.6 241.38 12.86Q241.14 12.22 240.72 11.73Q240.65 11.65 240.58 11.57Q240.4 11.39 240.2 11.23Q239.82 10.92 239.35 10.71Q239.22 10.65 239.08 10.61Q238.5 10.4 237.84 10.4Q236.91 10.4 236.11 10.73Q235.55 10.96 235.1 11.34Q234.92 11.49 234.76 11.66Q234.7 11.72 234.65 11.78Q234.16 12.34 233.87 13.08Q233.55 13.89 233.55 14.88Q233.55 16 234 16.88Q234.05 16.99 234.11 17.09Q234.34 17.48 234.65 17.8Q235.09 18.27 235.68 18.6Q235.71 18.62 235.74 18.63ZM235.26 13.87Q235.34 13.51 235.48 13.21Q235.67 12.83 235.96 12.56Q236.15 12.38 236.38 12.25Q236.97 11.92 237.84 11.92Q238.22 11.92 238.56 12.04Q238.7 12.09 238.84 12.16Q239.09 12.29 239.3 12.48Q239.47 12.63 239.61 12.82Q239.72 12.97 239.8 13.15Q239.93 13.43 239.96 13.76L239.96 13.87L235.26 13.87ZM47.93 18.79Q48.78 19.16 49.84 19.16Q50.68 19.16 51.37 18.83Q51.94 18.57 52.31 18.14Q52.39 18.05 52.47 17.95Q52.65 17.7 52.75 17.42Q52.88 17.06 52.88 16.66Q52.88 16.16 52.75 15.76Q52.71 15.64 52.65 15.52Q52.52 15.27 52.3 15.06Q52 14.74 51.47 14.49Q50.95 14.24 50.16 14.03Q49.61 13.91 49.26 13.76Q48.91 13.62 48.73 13.49Q48.65 13.42 48.58 13.34Q48.52 13.26 48.48 13.18Q48.45 13.12 48.43 13.06Q48.39 12.93 48.38 12.79Q48.38 12.55 48.47 12.35Q48.5 12.29 48.54 12.24Q48.63 12.12 48.75 12.03Q48.94 11.91 49.21 11.84Q49.48 11.78 49.82 11.78Q50.12 11.78 50.49 11.91Q50.86 12.03 51.22 12.27Q51.33 12.34 51.43 12.41Q51.67 12.59 51.88 12.8L52.83 11.76Q52.49 11.35 52 11.04Q51.99 11.04 51.97 11.03Q51.49 10.73 50.91 10.58Q50.49 10.46 50.06 10.43Q49.9 10.42 49.74 10.42Q49.11 10.42 48.56 10.6Q48.01 10.77 47.6 11.1Q47.29 11.35 47.08 11.67Q47.01 11.77 46.96 11.87Q46.91 11.97 46.87 12.07Q46.73 12.43 46.73 12.83Q46.73 13.27 46.84 13.63Q46.87 13.72 46.91 13.81Q47.02 14.07 47.2 14.29Q47.52 14.67 48.11 14.98Q48.7 15.28 49.63 15.52Q50.17 15.67 50.52 15.8Q50.86 15.94 51.02 16.05Q51.16 16.17 51.23 16.31Q51.32 16.49 51.32 16.72Q51.32 16.94 51.24 17.13Q51.24 17.15 51.23 17.16Q51.2 17.21 51.17 17.26Q51.08 17.4 50.95 17.51Q50.76 17.65 50.51 17.73Q50.27 17.8 49.98 17.8Q49.26 17.8 48.69 17.55Q48.12 17.3 47.64 16.74L46.52 17.7Q46.78 18.03 47.09 18.28Q47.47 18.59 47.93 18.79ZM66.27 19Q66.76 19.16 67.31 19.16Q67.85 19.16 68.35 19Q68.41 18.98 68.47 18.96Q69.02 18.77 69.47 18.45Q69.93 18.13 70.23 17.73Q70.23 17.72 70.24 17.71L70.24 19L71.9 19L71.9 10.6L70.24 10.6L70.24 11.88Q70.19 11.79 70.13 11.72Q69.91 11.4 69.6 11.15Q69.2 10.8 68.65 10.61Q68.11 10.42 67.45 10.42Q66.73 10.42 66.1 10.66Q65.77 10.78 65.46 10.98Q65.21 11.13 64.99 11.32Q64.43 11.81 64.05 12.52Q63.53 13.51 63.53 14.77Q63.53 15.98 64.01 16.95Q64.03 16.98 64.04 17.01Q64.46 17.82 65.1 18.35Q65.25 18.47 65.41 18.58Q65.82 18.85 66.27 19ZM74.2 10.6L74.2 19L75.87 19L75.87 14.35Q75.87 13.91 76.03 13.54Q76.03 13.52 76.04 13.5Q76.16 13.24 76.32 13.03Q76.41 12.91 76.52 12.81Q76.64 12.69 76.78 12.59Q76.97 12.45 77.2 12.35Q77.35 12.28 77.51 12.24Q77.76 12.18 78.03 12.18Q78.25 12.18 78.48 12.24Q78.72 12.29 78.91 12.37L79.34 10.58Q79.2 10.51 78.95 10.47Q78.7 10.42 78.43 10.42Q78.28 10.42 78.14 10.44Q77.7 10.49 77.28 10.71Q77.2 10.75 77.12 10.8Q76.67 11.07 76.3 11.49Q76.04 11.81 75.87 12.17L75.87 10.6L74.2 10.6ZM82.28 18.84Q83.01 19.16 83.87 19.16Q84.2 19.16 84.52 19.11Q85.2 19 85.84 18.69Q86.8 18.23 87.31 17.51L86.39 16.39Q86.06 16.8 85.67 17.09Q85.29 17.38 84.88 17.52Q84.7 17.59 84.51 17.62Q84.28 17.67 84.04 17.67Q83.63 17.67 83.25 17.54Q82.96 17.45 82.7 17.28Q82.49 17.15 82.31 16.98Q81.96 16.67 81.72 16.25Q81.66 16.15 81.61 16.04Q81.35 15.47 81.35 14.79Q81.35 14.07 81.62 13.48Q81.66 13.4 81.71 13.32Q81.95 12.87 82.3 12.55Q82.47 12.4 82.66 12.28Q82.82 12.18 82.99 12.11Q83.46 11.91 84.03 11.91Q84.44 11.91 84.89 12.08L84.9 12.09Q85.34 12.26 85.74 12.57Q86.14 12.87 86.39 13.23L87.31 12.12Q87.23 11.99 87.14 11.87Q86.68 11.26 85.9 10.88Q85.82 10.84 85.74 10.8Q84.89 10.42 83.87 10.42Q83.01 10.42 82.28 10.73Q82.02 10.84 81.78 11Q81.46 11.19 81.19 11.44Q80.67 11.91 80.32 12.56Q80.25 12.69 80.19 12.83Q79.79 13.72 79.79 14.79Q79.79 15.84 80.18 16.72Q80.24 16.87 80.32 17.01Q80.67 17.65 81.18 18.12Q81.45 18.38 81.78 18.58Q82.02 18.73 82.28 18.84ZM127.37 19Q127.86 19.16 128.41 19.16Q128.95 19.16 129.45 19Q129.51 18.98 129.57 18.96Q130.13 18.77 130.58 18.45Q131.03 18.13 131.33 17.73Q131.34 17.72 131.34 17.71L131.34 19L133 19L133 10.6L131.34 10.6L131.34 11.88Q131.29 11.79 131.23 11.72Q131.01 11.4 130.71 11.15Q130.3 10.8 129.75 10.61Q129.21 10.42 128.55 10.42Q127.84 10.42 127.21 10.66Q126.87 10.78 126.56 10.98Q126.32 11.13 126.1 11.32Q125.53 11.81 125.16 12.52Q124.64 13.51 124.64 14.77Q124.64 15.98 125.12 16.95Q125.13 16.98 125.15 17.01Q125.56 17.82 126.2 18.35Q126.35 18.47 126.52 18.58Q126.92 18.85 127.37 19ZM151.27 18.79Q152.12 19.16 153.18 19.16Q154.03 19.16 154.72 18.83Q155.28 18.57 155.65 18.14Q155.74 18.05 155.81 17.95Q155.99 17.7 156.09 17.42Q156.22 17.06 156.22 16.66Q156.22 16.16 156.09 15.76Q156.05 15.64 155.99 15.52Q155.86 15.27 155.64 15.06Q155.34 14.74 154.82 14.49Q154.3 14.24 153.5 14.03Q152.95 13.91 152.6 13.76Q152.25 13.62 152.08 13.49Q151.99 13.42 151.92 13.34Q151.87 13.26 151.83 13.18Q151.8 13.12 151.78 13.06Q151.73 12.93 151.72 12.79Q151.72 12.55 151.82 12.35Q151.85 12.29 151.89 12.24Q151.97 12.12 152.1 12.03Q152.28 11.91 152.56 11.84Q152.83 11.78 153.16 11.78Q153.47 11.78 153.83 11.91Q154.2 12.03 154.56 12.27Q154.67 12.34 154.77 12.41Q155.01 12.59 155.23 12.8L156.17 11.76Q155.84 11.35 155.34 11.04Q155.33 11.04 155.32 11.03Q154.83 10.73 154.26 10.58Q153.83 10.46 153.4 10.43Q153.24 10.42 153.08 10.42Q152.46 10.42 151.91 10.6Q151.36 10.77 150.95 11.1Q150.63 11.35 150.42 11.67Q150.36 11.77 150.31 11.87Q150.25 11.97 150.21 12.07Q150.08 12.43 150.08 12.83Q150.08 13.27 150.18 13.63Q150.21 13.72 150.25 13.81Q150.36 14.07 150.54 14.29Q150.86 14.67 151.45 14.98Q152.04 15.28 152.97 15.52Q153.52 15.67 153.86 15.8Q154.2 15.94 154.36 16.05Q154.5 16.17 154.58 16.31Q154.67 16.49 154.67 16.72Q154.67 16.94 154.59 17.13Q154.58 17.15 154.57 17.16Q154.55 17.21 154.52 17.26Q154.43 17.4 154.29 17.51Q154.11 17.65 153.86 17.73Q153.61 17.8 153.33 17.8Q152.6 17.8 152.03 17.55Q151.47 17.3 150.99 16.74L149.87 17.7Q150.12 18.03 150.44 18.28Q150.81 18.59 151.27 18.79ZM164.42 18.76Q165.27 19.16 166.3 19.16Q167.26 19.16 168.07 18.8Q168.28 18.71 168.48 18.59Q168.94 18.32 169.31 17.95Q169.71 17.55 170.01 17.03Q170.07 16.93 170.13 16.81Q170.57 15.91 170.57 14.79Q170.57 13.65 170.12 12.74Q170.06 12.64 170.01 12.54Q169.71 12.01 169.3 11.61Q168.93 11.25 168.48 10.99Q168.28 10.87 168.07 10.78Q167.26 10.42 166.3 10.42Q165.27 10.42 164.42 10.82Q164.26 10.9 164.1 10.99Q163.66 11.24 163.31 11.58Q162.88 12 162.57 12.54Q162.52 12.63 162.47 12.72Q162.01 13.64 162.01 14.79Q162.01 15.92 162.46 16.83Q162.51 16.94 162.57 17.03Q162.88 17.57 163.3 17.98Q163.66 18.33 164.1 18.59Q164.26 18.68 164.42 18.76ZM172.36 10.6L172.36 19L174.01 19L174.01 13.91Q174.01 13.6 174.1 13.33Q174.13 13.23 174.18 13.13Q174.25 12.98 174.35 12.84Q174.47 12.65 174.64 12.5Q174.69 12.46 174.74 12.42Q175 12.2 175.34 12.08Q175.74 11.92 176.22 11.92Q176.81 11.89 177.21 12.11Q177.31 12.16 177.4 12.23Q177.66 12.44 177.8 12.8Q178 13.27 178 13.99L178 19L179.65 19L179.65 13.87Q179.65 12.71 179.32 11.94Q179.08 11.34 178.63 10.98Q178.51 10.88 178.36 10.8Q177.72 10.42 176.76 10.42Q176.6 10.42 176.45 10.44Q175.94 10.49 175.45 10.72Q174.86 10.99 174.43 11.41Q174.39 11.44 174.35 11.48Q174.15 11.68 174.01 11.89L174.01 10.6L172.36 10.6ZM216.78 18.79Q217.63 19.16 218.68 19.16Q219.53 19.16 220.22 18.83Q220.78 18.57 221.16 18.14Q221.24 18.05 221.31 17.95Q221.49 17.7 221.59 17.42Q221.72 17.06 221.72 16.66Q221.72 16.16 221.59 15.76Q221.55 15.64 221.49 15.52Q221.36 15.27 221.15 15.06Q220.84 14.74 220.32 14.49Q219.8 14.24 219 14.03Q218.46 13.91 218.11 13.76Q217.75 13.62 217.58 13.49Q217.49 13.42 217.43 13.34Q217.37 13.26 217.33 13.18Q217.3 13.12 217.28 13.06Q217.24 12.93 217.23 12.79Q217.23 12.55 217.32 12.35Q217.35 12.29 217.39 12.24Q217.48 12.12 217.6 12.03Q217.79 11.91 218.06 11.84Q218.33 11.78 218.67 11.78Q218.97 11.78 219.34 11.91Q219.71 12.03 220.07 12.27Q220.18 12.34 220.28 12.41Q220.52 12.59 220.73 12.8L221.68 11.76Q221.34 11.35 220.84 11.04Q220.83 11.04 220.82 11.03Q220.34 10.73 219.76 10.58Q219.34 10.46 218.91 10.43Q218.75 10.42 218.59 10.42Q217.96 10.42 217.41 10.6Q216.86 10.77 216.45 11.1Q216.14 11.35 215.93 11.67Q215.86 11.77 215.81 11.87Q215.76 11.97 215.72 12.07Q215.58 12.43 215.58 12.83Q215.58 13.27 215.69 13.63Q215.72 13.72 215.76 13.81Q215.86 14.07 216.04 14.29Q216.36 14.67 216.95 14.98Q217.55 15.28 218.47 15.52Q219.02 15.67 219.36 15.8Q219.71 15.94 219.87 16.05Q220 16.17 220.08 16.31Q220.17 16.49 220.17 16.72Q220.17 16.94 220.09 17.13Q220.08 17.15 220.08 17.16Q220.05 17.21 220.02 17.26Q219.93 17.4 219.79 17.51Q219.61 17.65 219.36 17.73Q219.11 17.8 218.83 17.8Q218.11 17.8 217.54 17.55Q216.97 17.3 216.49 16.74L215.37 17.7Q215.63 18.03 215.94 18.28Q216.32 18.59 216.78 18.79ZM102.06 10.6L104.92 19L106.04 19L108.05 14.11L110.19 19L111.32 19L114.16 10.6L112.49 10.6L110.61 16.31L108.62 11.92L107.63 11.92L105.61 16.38L103.72 10.58L102.06 10.6ZM146.21 10.6L146.21 19L147.85 19L147.85 10.6L146.21 10.6ZM223.82 10.6L223.82 19L225.47 19L225.47 10.6L223.82 10.6ZM167.3 17.46Q166.84 17.65 166.3 17.65Q165.77 17.65 165.32 17.47Q165.13 17.39 164.95 17.28Q164.71 17.12 164.51 16.93Q164.21 16.64 164.01 16.25Q163.99 16.21 163.97 16.17Q163.68 15.56 163.69 14.79Q163.68 14.02 163.97 13.4Q163.99 13.36 164.01 13.32Q164.22 12.92 164.53 12.62Q164.72 12.44 164.95 12.3Q165.13 12.19 165.32 12.11Q165.77 11.92 166.3 11.92Q166.86 11.92 167.33 12.13Q167.49 12.2 167.64 12.29Q167.84 12.42 168.02 12.58Q168.35 12.88 168.57 13.31Q168.91 13.96 168.89 14.79Q168.91 15.56 168.61 16.17Q168.59 16.21 168.57 16.25Q168.36 16.65 168.06 16.95Q167.87 17.13 167.64 17.28Q167.48 17.38 167.3 17.46ZM68.82 17.4Q68.34 17.64 67.74 17.64Q67.17 17.64 66.7 17.42Q66.56 17.35 66.43 17.27Q66.29 17.17 66.16 17.06Q65.78 16.73 65.54 16.25Q65.21 15.6 65.21 14.77Q65.21 13.96 65.54 13.32Q65.78 12.84 66.15 12.52Q66.29 12.4 66.43 12.31Q66.56 12.22 66.7 12.16Q67.17 11.94 67.74 11.94Q68.34 11.94 68.82 12.17Q68.95 12.23 69.06 12.31Q69.25 12.43 69.41 12.57Q69.75 12.88 69.97 13.32Q70.3 13.96 70.3 14.77Q70.3 15.6 69.97 16.25Q69.74 16.7 69.4 17.01Q69.25 17.15 69.06 17.27Q68.95 17.34 68.82 17.4ZM129.92 17.4Q129.44 17.64 128.84 17.64Q128.27 17.64 127.81 17.42Q127.67 17.35 127.54 17.27Q127.4 17.17 127.27 17.06Q126.89 16.73 126.64 16.25Q126.32 15.6 126.32 14.77Q126.32 13.96 126.64 13.32Q126.89 12.84 127.26 12.52Q127.39 12.4 127.54 12.31Q127.67 12.22 127.81 12.16Q128.27 11.94 128.84 11.94Q129.44 11.94 129.92 12.17Q130.05 12.23 130.17 12.31Q130.35 12.43 130.51 12.57Q130.85 12.88 131.07 13.32Q131.4 13.96 131.4 14.77Q131.4 15.6 131.07 16.25Q130.85 16.7 130.51 17.01Q130.35 17.15 130.17 17.27Q130.05 17.34 129.92 17.4Z" fill="#6D7D8B" fill-opacity="1.000000" fill-rule="evenodd"/>
</svg>
