<svg width="16.000000" height="16.000000" viewBox="0 0 16 16" fill="none" xmlns="http://www.w3.org/2000/svg" xmlns:xlink="http://www.w3.org/1999/xlink">
	<desc>
			Created with Pixso.
	</desc>
	<defs/>
	<path id="Vector" d="M12 6.07C13.27 6.07 13.91 5.43 13.91 4.16L13.91 2.88C13.91 1.6 13.27 0.96 12 0.96L10.72 0.96C9.44 0.96 8.8 1.6 8.8 2.88L8.8 4.16C8.8 5.43 9.44 6.07 10.72 6.07L12 6.07Z" stroke="#232340" stroke-opacity="1.000000" stroke-width="0.958008" stroke-linejoin="round"/>
	<path id="Vector" d="M4.33 13.74C5.61 13.74 6.25 13.1 6.25 11.82L6.25 10.54C6.25 9.27 5.61 8.63 4.33 8.63L3.06 8.63C1.78 8.63 1.14 9.27 1.14 10.54L1.14 11.82C1.14 13.1 1.78 13.74 3.06 13.74L4.33 13.74Z" stroke="#232340" stroke-opacity="1.000000" stroke-width="0.958008" stroke-linejoin="round"/>
	<path id="Vector" d="M3.69 6.07C2.28 6.07 1.14 4.93 1.14 3.52C1.14 2.11 2.28 0.96 3.69 0.96C5.11 0.96 6.25 2.11 6.25 3.52C6.25 4.93 5.11 6.07 3.69 6.07Z" stroke="#232340" stroke-opacity="1.000000" stroke-width="0.958008" stroke-linejoin="round"/>
	<path id="Vector" d="M11.36 13.74C9.95 13.74 8.8 12.59 8.8 11.18C8.8 9.77 9.95 8.63 11.36 8.63C12.77 8.63 13.91 9.77 13.91 11.18C13.91 12.59 12.77 13.74 11.36 13.74Z" stroke="#232340" stroke-opacity="1.000000" stroke-width="0.958008" stroke-linejoin="round"/>
	<g opacity="0.000000"/>
</svg>
