<svg width="138.000000" height="21.000000" viewBox="0 0 138 21" fill="none" xmlns="http://www.w3.org/2000/svg" xmlns:xlink="http://www.w3.org/1999/xlink">
	<desc>
	</desc>
	<defs/>
	<path id="Vector" d="M19.27 20.74L19.27 15.18L13.21 15.18C11.57 15.18 10.04 16.05 9.2 17.46L7.23 20.74L19.27 20.74Z" fill="#63D2F9" fill-opacity="1.000000" fill-rule="nonzero"/>
	<path id="Vector" d="M0 -0.62L0 4.94L15.94 4.94L19.27 -0.62L0 -0.62Z" fill="#4E5EE4" fill-opacity="1.000000" fill-rule="nonzero"/>
	<path id="Vector" d="M7.63 8.07L0.01 20.74L6.5 20.74L15.61 5.59L12.02 5.59C10.22 5.59 8.55 6.53 7.63 8.07Z" fill="#63B0F9" fill-opacity="1.000000" fill-rule="nonzero"/>
	<path id="Vector" d="M33.07 15.41C29.81 15.41 27.41 13.04 27.41 9.85C27.41 6.7 29.82 4.3 33.09 4.3C36.35 4.3 38.77 6.73 38.77 9.85C38.77 13.01 36.33 15.41 33.07 15.41ZM33.09 13.47C35.15 13.47 36.63 11.94 36.63 9.85C36.63 7.8 35.15 6.24 33.09 6.24C31.01 6.24 29.53 7.8 29.53 9.85C29.53 11.94 31.01 13.47 33.09 13.47ZM40.95 18.73L40.95 7.16L42.92 7.16L42.92 8.19L43.03 8.19C43.24 7.85 43.98 6.96 45.46 6.96C47.72 6.96 49.28 8.65 49.28 11.15C49.28 13.66 47.74 15.41 45.52 15.41C44.09 15.41 43.32 14.61 43.06 14.17L42.95 14.17L42.95 18.73L40.95 18.73ZM45.07 13.6C46.37 13.6 47.24 12.61 47.24 11.19C47.24 9.72 46.37 8.77 45.06 8.77C43.74 8.77 42.9 9.82 42.9 11.19C42.9 12.68 43.83 13.6 45.07 13.6ZM55 15.41C52.61 15.41 50.92 13.63 50.92 11.23C50.92 8.69 52.63 6.96 55 6.96C57.6 6.96 59.02 8.88 59.02 11.14L59.02 11.77L52.86 11.77C52.92 12.99 53.77 13.82 55.06 13.82C56.05 13.82 56.8 13.36 57.08 12.7L58.94 12.7C58.54 14.34 57.09 15.41 55 15.41ZM52.89 10.36L57.11 10.36C57.02 9.27 56.17 8.55 55 8.55C53.88 8.55 53.01 9.35 52.89 10.36ZM61.17 15.21L61.17 7.16L63.08 7.16L63.08 8.14L63.19 8.14C63.51 7.54 64.31 6.96 65.46 6.96C67.28 6.96 68.39 8.23 68.39 9.95L68.39 15.21L66.39 15.21L66.39 10.47C66.39 9.49 65.76 8.83 64.83 8.83C63.86 8.83 63.17 9.59 63.17 10.6L63.17 15.21L61.17 15.21ZM70.37 15.21L70.37 13.39L75.97 6.37L75.97 6.26L70.57 6.26L70.57 4.5L78.53 4.5L78.53 6.3L72.93 13.33L72.93 13.45L78.56 13.45L78.56 15.21L70.37 15.21ZM83.98 15.41C81.59 15.41 79.9 13.63 79.9 11.23C79.9 8.69 81.61 6.96 83.98 6.96C86.58 6.96 87.99 8.88 87.99 11.14L87.99 11.77L81.84 11.77C81.9 12.99 82.75 13.82 84.04 13.82C85.02 13.82 85.78 13.36 86.05 12.7L87.92 12.7C87.52 14.34 86.07 15.41 83.98 15.41ZM81.87 10.36L86.08 10.36C85.99 9.27 85.15 8.55 83.98 8.55C82.85 8.55 81.99 9.35 81.87 10.36ZM90.15 18.73L90.15 7.16L92.12 7.16L92.12 8.19L92.22 8.19C92.44 7.85 93.18 6.96 94.66 6.96C96.92 6.96 98.47 8.65 98.47 11.15C98.47 13.66 96.93 15.41 94.72 15.41C93.29 15.41 92.52 14.61 92.26 14.17L92.15 14.17L92.15 18.73L90.15 18.73ZM94.27 13.6C95.56 13.6 96.44 12.61 96.44 11.19C96.44 9.72 95.56 8.77 94.26 8.77C92.93 8.77 92.1 9.82 92.1 11.19C92.1 12.68 93.03 13.6 94.27 13.6ZM100.63 18.73L100.63 7.16L102.6 7.16L102.6 8.19L102.7 8.19C102.92 7.85 103.66 6.96 105.14 6.96C107.4 6.96 108.95 8.65 108.95 11.15C108.95 13.66 107.41 15.41 105.2 15.41C103.77 15.41 103 14.61 102.74 14.17L102.63 14.17L102.63 18.73L100.63 18.73ZM104.75 13.6C106.04 13.6 106.92 12.61 106.92 11.19C106.92 9.72 106.04 8.77 104.74 8.77C103.41 8.77 102.58 9.82 102.58 11.19C102.58 12.68 103.51 13.6 104.75 13.6ZM114.68 15.41C112.29 15.41 110.6 13.63 110.6 11.23C110.6 8.69 112.31 6.96 114.68 6.96C117.28 6.96 118.69 8.88 118.69 11.14L118.69 11.77L112.54 11.77C112.6 12.99 113.45 13.82 114.74 13.82C115.72 13.82 116.48 13.36 116.75 12.7L118.62 12.7C118.22 14.34 116.77 15.41 114.68 15.41ZM112.57 10.36L116.79 10.36C116.69 9.27 115.85 8.55 114.68 8.55C113.55 8.55 112.69 9.35 112.57 10.36ZM122.82 15.21C121.4 15.21 120.6 14.37 120.6 12.94L120.6 3.73L122.6 3.73L122.6 12.76C122.6 13.22 122.83 13.47 123.25 13.47L123.57 13.47L123.57 15.21L122.82 15.21ZM126.5 6.09C125.77 6.09 125.26 5.65 125.26 4.93C125.26 4.24 125.77 3.78 126.5 3.78C127.22 3.78 127.73 4.24 127.73 4.93C127.73 5.65 127.22 6.09 126.5 6.09ZM125.49 15.21L125.49 7.16L127.5 7.16L127.5 15.21L125.49 15.21ZM129.93 15.21L129.93 7.16L131.83 7.16L131.83 8.14L131.94 8.14C132.27 7.54 133.07 6.96 134.22 6.96C136.03 6.96 137.14 8.23 137.14 9.95L137.14 15.21L135.14 15.21L135.14 10.47C135.14 9.49 134.51 8.83 133.59 8.83C132.62 8.83 131.93 9.59 131.93 10.6L131.93 15.21L129.93 15.21Z" fill="#282846" fill-opacity="1.000000" fill-rule="nonzero"/>
</svg>
