<svg width="24.000000" height="24.000000" viewBox="0 0 24 24" fill="none" xmlns="http://www.w3.org/2000/svg" xmlns:xlink="http://www.w3.org/1999/xlink">
	<desc>
	</desc>
	<defs/>
	<path id="Vector" d="M15.84 2.96L6.81 5.96C0.74 7.98 0.74 11.3 6.81 13.32L9.49 14.21L10.38 16.89C12.4 22.96 15.72 22.96 17.74 16.89L20.75 7.87C22.09 3.82 19.89 1.6 15.84 2.96ZM16.16 8.34L12.36 12.16C12.21 12.31 12.02 12.38 11.83 12.38C11.64 12.38 11.45 12.31 11.3 12.16C11.01 11.87 11.01 11.39 11.3 11.1L15.1 7.28C15.39 6.98 15.87 6.98 16.16 7.28C16.45 7.57 16.45 8.05 16.16 8.34Z" fill="#F5F5F5" fill-opacity="1.000000" fill-rule="nonzero"/>
	<g opacity="0.000000"/>
</svg>
