<svg width="16.000000" height="15.000000" viewBox="0 0 16 15" fill="none" xmlns="http://www.w3.org/2000/svg" xmlns:xlink="http://www.w3.org/1999/xlink">
	<desc>
	</desc>
	<defs/>
	<path id="Vector" d="M7.53 8.99C6.47 8.99 5.61 8.13 5.61 7.07C5.61 6.01 6.47 5.15 7.53 5.15C8.58 5.15 9.44 6.01 9.44 7.07C9.44 8.13 8.58 8.99 7.53 8.99Z" stroke="#7676B2" stroke-opacity="1.000000" stroke-width="0.958008" stroke-linejoin="round"/>
	<path id="Vector" d="M1.14 6.51C1.14 5.84 1.68 5.29 2.35 5.29C3.51 5.29 3.98 4.48 3.4 3.47C3.07 2.9 3.27 2.15 3.85 1.82L4.95 1.19C5.46 0.89 6.11 1.07 6.41 1.57L6.48 1.69C7.05 2.69 8 2.69 8.58 1.69L8.65 1.57C8.95 1.07 9.6 0.89 10.11 1.19L11.21 1.82C11.79 2.15 11.99 2.9 11.66 3.47C11.08 4.48 11.55 5.29 12.71 5.29C13.37 5.29 13.92 5.84 13.92 6.51L13.92 7.63C13.92 8.3 13.38 8.84 12.71 8.84C11.55 8.84 11.08 9.66 11.66 10.66C11.99 11.25 11.79 11.99 11.21 12.32L10.11 12.95C9.6 13.25 8.95 13.07 8.65 12.57L8.58 12.45C8.01 11.44 7.06 11.44 6.48 12.45L6.41 12.57C6.11 13.07 5.46 13.25 4.95 12.95L3.85 12.32C3.27 11.99 3.07 11.24 3.4 10.66C3.98 9.66 3.51 8.84 2.35 8.84C1.68 8.84 1.14 8.3 1.14 7.63L1.14 6.51Z" stroke="#7676B2" stroke-opacity="1.000000" stroke-width="0.958008" stroke-linejoin="round"/>
	<g opacity="0.000000"/>
</svg>
