<svg width="18.000000" height="15.000000" viewBox="0 0 18 15" fill="none" xmlns="http://www.w3.org/2000/svg" xmlns:xlink="http://www.w3.org/1999/xlink">
	<desc>
	</desc>
	<defs/>
	<path id="Vector" d="M13.91 2.1C13.91 1.33 13.29 0.76 12.53 0.83L12.49 0.83C11.15 0.94 9.11 1.63 7.97 2.34L7.86 2.41C7.68 2.53 7.37 2.53 7.19 2.41L7.03 2.32C5.89 1.61 3.86 0.93 2.52 0.82C1.76 0.76 1.14 1.33 1.14 2.09L1.14 9.81C1.14 10.42 1.64 11 2.25 11.07L2.44 11.1C3.82 11.28 5.96 11.99 7.19 12.66L7.21 12.67C7.39 12.76 7.66 12.76 7.83 12.67C9.05 11.99 11.2 11.28 12.59 11.1L12.8 11.07C13.41 11 13.91 10.42 13.91 9.81L13.91 2.1Z" stroke="#7676B2" stroke-opacity="1.000000" stroke-width="0.958008" stroke-linejoin="round"/>
	<path id="Vector" d="M7.53 2.62L17.11 2.62" stroke="#7676B2" stroke-opacity="1.000000" stroke-width="0.958008" stroke-linejoin="round" stroke-linecap="round"/>
	<path id="Vector" d="M4.81 4.54L3.37 4.54" stroke="#7676B2" stroke-opacity="1.000000" stroke-width="0.958008" stroke-linejoin="round" stroke-linecap="round"/>
	<path id="Vector" d="M5.29 6.45L3.37 6.45" stroke="#7676B2" stroke-opacity="1.000000" stroke-width="0.958008" stroke-linejoin="round" stroke-linecap="round"/>
	<g opacity="0.000000"/>
</svg>
