<svg width="74" height="50" viewBox="0 0 74 50" fill="none" xmlns="http://www.w3.org/2000/svg" xmlns:xlink="http://www.w3.org/1999/xlink">
<path d="M4.111,7.556C1.85,7.556 0,5.706 0,3.445C0,1.183 1.85,-0.667 4.111,-0.667L69.889,-0.667C72.15,-0.667 74,1.183 74,3.445C74,5.706 72.15,7.556 69.889,7.556L4.111,7.556ZM4.111,28.111L69.889,28.111C72.15,28.111 74,26.261 74,24C74,21.739 72.15,19.889 69.889,19.889L4.111,19.889C1.85,19.889 0,21.739 0,24C0,26.261 1.85,28.111 4.111,28.111ZM4.111,48.667L69.889,48.667C72.15,48.667 74,46.817 74,44.556C74,42.295 72.15,40.445 69.889,40.445L4.111,40.445C1.85,40.445 0,42.295 0,44.556C0,46.817 1.85,48.667 4.111,48.667Z" clip-rule="evenodd" fill-rule="evenodd" fill="#F5F5F5"/>
</svg>
