<svg xmlns="http://www.w3.org/2000/svg" version="1.1" xmlns:xlink="http://www.w3.org/1999/xlink" xmlns:svgjs="http://svgjs.dev/svgjs" width="1500" height="537" viewBox="0 0 1500 537"><g transform="matrix(1,0,0,1,-0.9084522071641459,-0.018418241913252587)"><svg viewBox="0 0 396 142" data-background-color="#ffffff" preserveAspectRatio="xMidYMid meet" height="537" width="1500" xmlns="http://www.w3.org/2000/svg" xmlns:xlink="http://www.w3.org/1999/xlink"><g id="tight-bounds" transform="matrix(1,0,0,1,0.24008861730862918,0.004870373094377101)"><svg viewBox="0 0 395.52 141.99025925381125" height="141.99025925381125" width="395.52"><g><svg viewBox="0 0 395.52 141.99025925381125" height="141.99025925381125" width="395.52"><g><svg viewBox="0 0 395.52 141.99025925381125" height="141.99025925381125" width="395.52"><g id="textblocktransform"><svg viewBox="0 0 395.52 141.99025925381125" height="141.99025925381125" width="395.52" id="textblock"><g><svg viewBox="0 0 395.52 116.82320149780816" height="116.82320149780816" width="395.52"><path d="M394.594 25.056C392.735 12.93 387.435 9.559 387.435 9.559 371.165-2.931 350.86-0.239 332.619 1.556 300.414 1.629 268.339 4.296 236.208 5.727 168.767 5.945 100.749 2.356 33.643 11.208 27.339 13.924-6.54 11.742 1.121 26.608 3.129 32.793 10.456 39.656 10.232 45.331 11.236 46.326 12.631 44.046 13.226 45.477 15.309 49.333 18.711 47.514 21.501 49.794 17.614 55.881 20.403 60.95 23.062 66.261 18.377 67.644 12.371 66.989 9.675 71.572 9.396 74.895 7.89 74.264 6.235 74.119 5.026 74.022 2.59 74.386 2.999 75.429 4.394 78.994-1.594 81.055 2.162 84.548-0.422 88.331 3.948 91.605 3.353 95.704 3.278 96.528 3.687 97.232 4.338 97.426 7.22 98.468 3.018 100.506 3.464 102.713 33.029 117.798 65.104 107.369 95.394 114.305 103.259 109.455 97.346 116.027 100.489 115.009 102.943 113.82 104.728 118.743 107.499 115.954 107.927 115.154 107.276 113.262 108.8 113.626 109.6 113.82 110.307 113.772 110.418 112.656 110.586 110.983 109.117 112.025 108.726 111.152 112.947 106.738 111.906 117.24 115.866 116.803 115.68 115.518 114.528 113.675 116.889 113.917 119.232 112.074 119.306 110.546 121.389 114.693 121.463 115.591 121.835 116.221 122.43 116.658 128.938 112.147 135.409 118.258 142.233 116.221 146.417 113.99 150.433 117.434 154.672 116.585 156.16 115.906 157.666 114.693 159.098 116.73 176.632 117.167 195.319 115.348 211.943 116.803 256.364 114.087 303.836 117.919 350.674 114.329 361.719 112.947 373.192 110.983 383.958 109.406 383.958 109.406 392.679 105.089 392.679 85.687S394.538 68.711 394.817 53.262C395.096 37.813 396.398 37.183 394.538 25.056Z" opacity="1" fill="#000000" data-fill-palette-color="tertiary"></path><g transform="matrix(1,0,0,1,55.76832,26.068561146666667)"><svg width="283.98335999999995" viewBox="2.05 -36.2 160.89 36.650000000000006" height="64.68607920447482" data-palette-color="#ffffff"><path d="M10 0.25L10 0.25Q7.25 0.25 5.4-2.05 3.55-4.35 3.55-8.35L3.55-8.35Q3.55-10.4 4-12.98 4.45-15.55 5.05-18.2 5.65-20.85 6.1-23.18 6.55-25.5 6.55-27.05L6.55-27.05Q6.55-28.15 6.25-28.78 5.95-29.4 5.15-29.4L5.15-29.4Q4.55-29.4 3.75-28.85 2.95-28.3 2.55-26.7L2.55-26.7 2.05-26.9Q2.05-31.2 4.03-33.7 6-36.2 9.35-36.2L9.35-36.2Q12.5-36.2 13.73-34.15 14.95-32.1 14.95-29L14.95-29Q14.95-26.7 14.48-24.1 14-21.5 13.4-18.93 12.8-16.35 12.33-14.15 11.85-11.95 11.85-10.5L11.85-10.5Q11.85-8.35 12.95-8.35L12.95-8.35Q13.6-8.35 14.7-9.28 15.8-10.2 17.03-11.83 18.25-13.45 19.4-15.53 20.55-17.6 21.35-19.9L21.35-19.9Q21.25-21 21.2-22.03 21.15-23.05 21.15-23.85L21.15-23.85Q21.15-27.85 21.93-30.3 22.7-32.75 23.9-33.9 25.1-35.05 26.35-35.05L26.35-35.05Q28.1-35.05 29.5-33.13 30.9-31.2 30.9-27.9L30.9-27.9Q30.9-25.85 30.15-23.33 29.4-20.8 27.65-17.95L27.65-17.95Q27.5-13.65 28.6-11 29.7-8.35 31.35-8.35L31.35-8.35Q32.4-8.35 33.63-9.43 34.85-10.5 35.9-12.43 36.95-14.35 37.63-16.9 38.3-19.45 38.3-22.35L38.3-22.35Q38.3-24.05 38.08-25.9 37.85-27.75 37.52-29.45 37.2-31.15 36.85-32.25L36.85-32.25Q36.85-33.1 37.58-33.98 38.3-34.85 39.45-35.48 40.6-36.1 41.8-36.1L41.8-36.1Q43-36.1 44.1-35.25 45.2-34.4 45.9-32.27 46.6-30.15 46.6-26.25L46.6-26.25Q46.6-20.8 45.2-16.03 43.8-11.25 41.43-7.6 39.05-3.95 36.2-1.88 33.35 0.2 30.4 0.2L30.4 0.2Q27.8 0.2 26.1-1.4 24.4-3 23.45-5.7 22.5-8.4 22.1-11.7L22.1-11.7Q20.3-7.4 18.2-4.78 16.1-2.15 14-0.95 11.9 0.25 10 0.25ZM59.15 0.35L59.15 0.35Q55.4 0.35 52.95-1.15 50.5-2.65 49.32-5.13 48.15-7.6 48.15-10.4L48.15-10.4Q48.15-13.05 49.12-15.7 50.1-18.35 51.97-20.53 53.85-22.7 56.55-24.03 59.25-25.35 62.75-25.35L62.75-25.35Q66.5-25.35 68.92-23.83 71.35-22.3 72.52-19.8 73.7-17.3 73.7-14.45L73.7-14.45Q73.7-11.85 72.75-9.22 71.8-6.6 69.92-4.42 68.05-2.25 65.35-0.95 62.65 0.35 59.15 0.35ZM60.5-3.9L60.5-3.9Q61.85-3.9 62.75-5.3 63.65-6.7 64.1-8.88 64.55-11.05 64.55-13.3L64.55-13.3Q64.55-15.3 64.17-17.07 63.8-18.85 63.05-19.98 62.3-21.1 61.1-21.1L61.1-21.1Q59.8-21.1 58.87-19.7 57.95-18.3 57.5-16.15 57.05-14 57.05-11.7L57.05-11.7Q57.05-9.7 57.42-7.93 57.8-6.15 58.55-5.03 59.3-3.9 60.5-3.9ZM85.09 0.45L85.09 0.45Q82 0.45 79.94-0.4 77.89-1.25 76.89-2.58 75.89-3.9 75.89-5.25L75.89-5.25Q75.89-7.15 77.59-8.63 79.3-10.1 82.19-10.1L82.19-10.1Q82.19-7.55 82.84-6.03 83.5-4.5 84.52-3.85 85.55-3.2 86.5-3.2L86.5-3.2Q87.64-3.2 88.42-3.88 89.19-4.55 89.19-5.55L89.19-5.55Q89.19-6.95 87.75-8 86.3-9.05 84-10.35L84-10.35Q82.84-11.05 81.5-11.98 80.14-12.9 79.19-14.23 78.25-15.55 78.25-17.4L78.25-17.4Q78.25-19.35 79.37-20.85 80.5-22.35 82.34-23.38 84.19-24.4 86.34-24.93 88.5-25.45 90.55-25.45L90.55-25.45Q94.39-25.45 96.34-23.9 98.3-22.35 98.3-20.6L98.3-20.6Q98.3-19.1 96.8-17.9 95.3-16.7 92.19-16.7L92.19-16.7Q92.25-19.25 91.14-20.43 90.05-21.6 88.8-21.6L88.8-21.6Q87.89-21.6 87.3-21.05 86.69-20.5 86.69-19.45L86.69-19.45Q86.69-18.25 87.47-17.38 88.25-16.5 89.42-15.83 90.59-15.15 91.84-14.55L91.84-14.55Q93.55-13.75 95.05-12.85 96.55-11.95 97.5-10.8 98.44-9.65 98.44-8L98.44-8Q98.44-5.75 96.62-3.83 94.8-1.9 91.75-0.73 88.69 0.45 85.09 0.45ZM108.44 0.2L108.44 0.2Q106.84 0.2 105.42-0.53 103.99-1.25 103.12-2.8 102.24-4.35 102.24-6.75L102.24-6.75Q102.24-8.05 102.49-10.15 102.74-12.25 103.17-14.75 103.59-17.25 104.04-19.75L104.04-19.75Q103.04-19.7 102.12-19.55 101.19-19.4 100.29-19.2L100.29-19.2 100.19-19.55Q101.19-20.75 102.29-21.6 103.39-22.45 104.59-23L104.59-23Q105.24-26.3 105.69-28.73 106.14-31.15 106.14-31.6L106.14-31.6Q106.14-32.45 107.47-33 108.79-33.55 110.44-33.55L110.44-33.55Q111.89-33.55 113.17-33 114.44-32.45 114.89-31.15L114.89-31.15Q114.59-30.85 114.04-28.93 113.49-27 112.89-24.25L112.89-24.25Q113.84-24.2 114.84-24.15 115.84-24.1 116.89-24L116.89-24Q116.99-23.7 117.04-23.35 117.09-23 117.09-22.6L117.09-22.6Q117.09-21.85 116.87-20.98 116.64-20.1 116.34-19.4L116.34-19.4Q115.14-19.5 114.09-19.63 113.04-19.75 112.04-19.8L112.04-19.8Q111.64-17.65 111.32-15.5 110.99-13.35 110.82-11.6 110.64-9.85 110.64-8.85L110.64-8.85Q110.64-6.75 111.42-6.05 112.19-5.35 113.29-5.35L113.29-5.35Q114.29-5.35 115.09-5.75 115.89-6.15 116.24-6.7L116.24-6.7 116.74-6.55Q116.44-4.5 115.14-2.98 113.84-1.45 112.04-0.63 110.24 0.2 108.44 0.2ZM137.19 0.25L137.19 0.25Q135.44 0.25 134.14-0.9 132.84-2.05 132.84-4.65L132.84-4.65Q132.84-4.9 132.84-5.15 132.84-5.4 132.89-5.65L132.89-5.65Q131.39-2.65 129.52-1.23 127.64 0.2 125.74 0.2L125.74 0.2Q123.99 0.2 122.44-1.03 120.89-2.25 119.94-4.65 118.99-7.05 118.99-10.45L118.99-10.45Q118.99-13.95 119.97-16.7 120.94-19.45 122.54-21.35 124.14-23.25 126.04-24.23 127.94-25.2 129.74-25.2L129.74-25.2Q131.74-25.2 133.34-23.98 134.94-22.75 135.54-20.1L135.54-20.1Q135.69-20.95 135.77-21.65 135.84-22.35 135.84-22.6L135.84-22.6Q135.89-23.95 137.22-24.6 138.54-25.25 140.14-25.25L140.14-25.25Q141.54-25.25 142.79-24.7 144.04-24.15 144.49-22.85L144.49-22.85 144.59-22.55Q143.99-21.2 143.39-19.3 142.79-17.4 142.29-15.33 141.79-13.25 141.49-11.28 141.19-9.3 141.19-7.8L141.19-7.8Q141.19-6.15 141.54-5.53 141.89-4.9 142.39-4.9L142.39-4.9Q143.24-4.9 143.94-6.1L143.94-6.1 144.34-5.9Q144.34-4.2 143.24-2.8 142.14-1.4 140.49-0.58 138.84 0.25 137.19 0.25ZM129.04-6.1L129.04-6.1Q130.34-6.1 131.92-8.43 133.49-10.75 134.64-15.1L134.64-15.1Q134.74-15.55 134.84-15.98 134.94-16.4 134.99-16.8L134.99-16.8Q134.19-18.65 133.31-19.43 132.44-20.2 131.59-20.2L131.59-20.2Q130.34-20.2 129.27-18.88 128.19-17.55 127.52-15.55 126.84-13.55 126.84-11.55L126.84-11.55Q126.84-8.8 127.47-7.45 128.09-6.1 129.04-6.1ZM154.29 0.2L154.29 0.2Q152.69 0.2 151.26-0.53 149.84-1.25 148.96-2.8 148.09-4.35 148.09-6.75L148.09-6.75Q148.09-8.05 148.34-10.15 148.59-12.25 149.01-14.75 149.44-17.25 149.89-19.75L149.89-19.75Q148.89-19.7 147.96-19.55 147.04-19.4 146.14-19.2L146.14-19.2 146.04-19.55Q147.04-20.75 148.14-21.6 149.24-22.45 150.44-23L150.44-23Q151.09-26.3 151.54-28.73 151.99-31.15 151.99-31.6L151.99-31.6Q151.99-32.45 153.31-33 154.64-33.55 156.29-33.55L156.29-33.55Q157.74-33.55 159.01-33 160.29-32.45 160.74-31.15L160.74-31.15Q160.44-30.85 159.89-28.93 159.34-27 158.74-24.25L158.74-24.25Q159.69-24.2 160.69-24.15 161.69-24.1 162.74-24L162.74-24Q162.84-23.7 162.89-23.35 162.94-23 162.94-22.6L162.94-22.6Q162.94-21.85 162.71-20.98 162.49-20.1 162.19-19.4L162.19-19.4Q160.99-19.5 159.94-19.63 158.89-19.75 157.89-19.8L157.89-19.8Q157.49-17.65 157.16-15.5 156.84-13.35 156.66-11.6 156.49-9.85 156.49-8.85L156.49-8.85Q156.49-6.75 157.26-6.05 158.04-5.35 159.14-5.35L159.14-5.35Q160.14-5.35 160.94-5.75 161.74-6.15 162.09-6.7L162.09-6.7 162.59-6.55Q162.29-4.5 160.99-2.98 159.69-1.45 157.89-0.63 156.09 0.2 154.29 0.2Z" opacity="1" transform="matrix(1,0,0,1,0,0)" fill="#ffffff" class="wordmark-text-0" data-fill-palette-color="quaternary" id="text-0"></path></svg></g></svg></g><g transform="matrix(1,0,0,1,75.54432000000001,132.09403233208374)"><svg viewBox="0 0 244.43135999999996 9.896226921727507" height="9.896226921727507" width="244.43135999999996"><g transform="matrix(1,0,0,1,0,0)"><svg width="244.43135999999996" viewBox="1 -35.01 876.68 35.5" height="9.896226921727507" data-palette-color="#61777f"><path d="M36.65-35.01L27.39 0 25.76 0 18.95-26.34 18.85-27.71 18.7-26.34 11.94 0 10.3 0 1-35.01 4.15-35.01 11.01-8.4 11.11-7.1 11.21-8.4 17.94-35.01 19.7-35.01 26.44-8.4 26.54-7.1 26.66-8.4 33.5-35.01 36.65-35.01ZM57.35 0L54.34 0 54.34-18.31Q54.34-19.21 54-20.01 53.66-20.8 53.07-21.39 52.49-21.97 51.69-22.31 50.9-22.66 50-22.66L50-22.66 48-22.66Q47.09-22.66 46.3-22.31 45.51-21.97 44.92-21.39 44.33-20.8 43.99-20.01 43.65-19.21 43.65-18.31L43.65-18.31 43.65 0 40.65 0 40.65-35.01 43.65-35.01 43.65-22.9Q44.68-24.12 46.12-24.8 47.56-25.49 49.24-25.49L49.24-25.49 50-25.49Q51.51-25.49 52.85-24.91 54.2-24.34 55.2-23.34 56.2-22.34 56.77-21 57.35-19.65 57.35-18.14L57.35-18.14 57.35 0ZM80.05-6.86L80.05-6.86Q80.05-5.35 79.47-4 78.9-2.66 77.9-1.66 76.9-0.66 75.56-0.09 74.21 0.49 72.7 0.49L72.7 0.49 70.7 0.49Q69.18 0.49 67.84-0.09 66.5-0.66 65.5-1.66 64.5-2.66 63.92-4 63.35-5.35 63.35-6.86L63.35-6.86 63.35-18.14Q63.35-19.65 63.92-21 64.5-22.34 65.5-23.34 66.5-24.34 67.84-24.91 69.18-25.49 70.7-25.49L70.7-25.49 72.7-25.49Q74.21-25.49 75.56-24.91 76.9-24.34 77.9-23.34 78.9-22.34 79.47-21 80.05-19.65 80.05-18.14L80.05-18.14 80.05-6.86ZM77.05-6.69L77.05-18.31Q77.05-19.21 76.7-20.01 76.36-20.8 75.78-21.39 75.19-21.97 74.4-22.31 73.6-22.66 72.7-22.66L72.7-22.66 70.7-22.66Q69.79-22.66 69-22.31 68.21-21.97 67.62-21.39 67.04-20.8 66.69-20.01 66.35-19.21 66.35-18.31L66.35-18.31 66.35-6.69Q66.35-5.79 66.69-4.99 67.04-4.2 67.62-3.61 68.21-3.03 69-2.69 69.79-2.34 70.7-2.34L70.7-2.34 72.7-2.34Q73.6-2.34 74.4-2.69 75.19-3.03 75.78-3.61 76.36-4.2 76.7-4.99 77.05-5.79 77.05-6.69L77.05-6.69ZM102.75-6.86L102.75-6.86Q102.75-5.35 102.18-4 101.6-2.66 100.6-1.66 99.6-0.66 98.26-0.09 96.92 0.49 95.4 0.49L95.4 0.49 93.4 0.49Q91.89 0.49 90.54-0.09 89.2-0.66 88.2-1.66 87.2-2.66 86.63-4 86.05-5.35 86.05-6.86L86.05-6.86 86.05-18.14Q86.05-19.65 86.63-21 87.2-22.34 88.2-23.34 89.2-24.34 90.54-24.91 91.89-25.49 93.4-25.49L93.4-25.49 95.4-25.49Q96.92-25.49 98.26-24.91 99.6-24.34 100.6-23.34 101.6-22.34 102.18-21 102.75-19.65 102.75-18.14L102.75-18.14 102.75-12.26 89.06-12.26 89.06-6.69Q89.06-5.79 89.4-4.99 89.74-4.2 90.32-3.61 90.91-3.03 91.7-2.69 92.5-2.34 93.4-2.34L93.4-2.34 95.4-2.34Q96.31-2.34 97.1-2.69 97.89-3.03 98.48-3.61 99.06-4.2 99.41-4.99 99.75-5.79 99.75-6.69L99.75-6.69 99.75-8.35 102.75-7.86 102.75-6.86ZM99.75-14.6L99.75-18.31Q99.75-19.21 99.41-20.01 99.06-20.8 98.48-21.39 97.89-21.97 97.1-22.31 96.31-22.66 95.4-22.66L95.4-22.66 93.4-22.66Q92.5-22.66 91.7-22.31 90.91-21.97 90.32-21.39 89.74-20.8 89.4-20.01 89.06-19.21 89.06-18.31L89.06-18.31 89.06-14.6 99.75-14.6ZM125.45-25L116.59 0 115.1 0 106.24-25 109.24-25 115.76-6.05 115.86-4.76 115.96-6.05 122.45-25 125.45-25ZM145.64-6.86L145.64-6.86Q145.64-5.35 145.07-4 144.49-2.66 143.49-1.66 142.49-0.66 141.15-0.09 139.81 0.49 138.29 0.49L138.29 0.49 136.29 0.49Q134.78 0.49 133.43-0.09 132.09-0.66 131.09-1.66 130.09-2.66 129.52-4 128.94-5.35 128.94-6.86L128.94-6.86 128.94-18.14Q128.94-19.65 129.52-21 130.09-22.34 131.09-23.34 132.09-24.34 133.43-24.91 134.78-25.49 136.29-25.49L136.29-25.49 138.29-25.49Q139.81-25.49 141.15-24.91 142.49-24.34 143.49-23.34 144.49-22.34 145.07-21 145.64-19.65 145.64-18.14L145.64-18.14 145.64-12.26 131.95-12.26 131.95-6.69Q131.95-5.79 132.29-4.99 132.63-4.2 133.22-3.61 133.8-3.03 134.59-2.69 135.39-2.34 136.29-2.34L136.29-2.34 138.29-2.34Q139.2-2.34 139.99-2.69 140.78-3.03 141.37-3.61 141.96-4.2 142.3-4.99 142.64-5.79 142.64-6.69L142.64-6.69 142.64-8.35 145.64-7.86 145.64-6.86ZM142.64-14.6L142.64-18.31Q142.64-19.21 142.3-20.01 141.96-20.8 141.37-21.39 140.78-21.97 139.99-22.31 139.2-22.66 138.29-22.66L138.29-22.66 136.29-22.66Q135.39-22.66 134.59-22.31 133.8-21.97 133.22-21.39 132.63-20.8 132.29-20.01 131.95-19.21 131.95-18.31L131.95-18.31 131.95-14.6 142.64-14.6ZM162-22.14L158.99-22.14Q158.09-22.14 157.3-21.8 156.5-21.46 155.92-20.87 155.33-20.29 154.99-19.49 154.65-18.7 154.65-17.8L154.65-17.8 154.65 0 151.65 0 151.65-25 152.65-25 154.28-22.46Q155.31-23.85 156.86-24.67 158.41-25.49 160.24-25.49L160.24-25.49 162-25.49 162-22.14ZM194.19-6.86L194.19-6.86Q194.19-5.35 193.62-4 193.05-2.66 192.05-1.66 191.04-0.66 189.7-0.09 188.36 0.49 186.85 0.49L186.85 0.49 184.84 0.49Q183.33 0.49 181.99-0.09 180.64-0.66 179.64-1.66 178.64-2.66 178.07-4 177.49-5.35 177.49-6.86L177.49-6.86 177.49-18.14Q177.49-19.65 178.07-21 178.64-22.34 179.64-23.34 180.64-24.34 181.99-24.91 183.33-25.49 184.84-25.49L184.84-25.49 186.85-25.49Q188.36-25.49 189.7-24.91 191.04-24.34 192.05-23.34 193.05-22.34 193.62-21 194.19-19.65 194.19-18.14L194.19-18.14 194.19-6.86ZM191.19-6.69L191.19-18.31Q191.19-19.21 190.85-20.01 190.51-20.8 189.92-21.39 189.34-21.97 188.54-22.31 187.75-22.66 186.85-22.66L186.85-22.66 184.84-22.66Q183.94-22.66 183.15-22.31 182.35-21.97 181.77-21.39 181.18-20.8 180.84-20.01 180.5-19.21 180.5-18.31L180.5-18.31 180.5-6.69Q180.5-5.79 180.84-4.99 181.18-4.2 181.77-3.61 182.35-3.03 183.15-2.69 183.94-2.34 184.84-2.34L184.84-2.34 186.85-2.34Q187.75-2.34 188.54-2.69 189.34-3.03 189.92-3.61 190.51-4.2 190.85-4.99 191.19-5.79 191.19-6.69L191.19-6.69ZM229.59-25L221.24 0 219.61 0 213.75-18.85 213.65-20.14 213.55-18.85 207.69 0 206.03 0 197.68-25 200.73-25 206.69-6.1 206.79-4.81 206.89-6.1 212.75-25 214.55-25 220.39-6.1 220.49-4.81 220.58-6.1 226.54-25 229.59-25ZM249.8 0L246.8 0 246.8-18.31Q246.8-19.21 246.46-20.01 246.12-20.8 245.53-21.39 244.95-21.97 244.15-22.31 243.36-22.66 242.46-22.66L242.46-22.66 240.45-22.66Q239.55-22.66 238.76-22.31 237.96-21.97 237.38-21.39 236.79-20.8 236.45-20.01 236.11-19.21 236.11-18.31L236.11-18.31 236.11 0 233.1 0 233.1-25 234.11-25 235.74-22.46Q236.77-23.85 238.32-24.67 239.87-25.49 241.7-25.49L241.7-25.49 242.46-25.49Q243.97-25.49 245.31-24.91 246.65-24.34 247.66-23.34 248.66-22.34 249.23-21 249.8-19.65 249.8-18.14L249.8-18.14 249.8 0ZM272.99-6.35L272.99-6.35Q272.99-4.83 272.38-3.58 271.77-2.32 270.72-1.42 269.67-0.51 268.3-0.01 266.92 0.49 265.4 0.49L265.4 0.49 263.4 0.49Q261.89 0.49 260.51-0.09 259.13-0.66 258.09-1.66 257.05-2.66 256.43-4 255.81-5.35 255.81-6.86L255.81-6.86 255.81-7.86 258.81-8.35 258.81-6.69Q258.81-5.79 259.19-4.99 259.57-4.2 260.2-3.61 260.84-3.03 261.67-2.69 262.5-2.34 263.4-2.34L263.4-2.34 265.4-2.34Q266.31-2.34 267.14-2.61 267.97-2.88 268.61-3.38 269.26-3.88 269.64-4.59 270.02-5.3 270.02-6.2L270.02-6.2Q270.02-7.54 269.43-8.4 268.84-9.25 267.88-9.83 266.92-10.4 265.68-10.78 264.45-11.16 263.16-11.54 261.86-11.91 260.63-12.4 259.4-12.89 258.43-13.68 257.47-14.48 256.88-15.67 256.3-16.87 256.3-18.65L256.3-18.65Q256.3-20.17 256.88-21.42 257.47-22.68 258.47-23.58 259.47-24.49 260.8-24.99 262.13-25.49 263.64-25.49L263.64-25.49 265.4-25.49Q266.92-25.49 268.26-24.91 269.6-24.34 270.6-23.34 271.6-22.34 272.18-21 272.75-19.65 272.75-18.14L272.75-18.14 272.75-18.04 269.75-17.55 269.75-18.31Q269.75-19.21 269.41-20.01 269.06-20.8 268.48-21.39 267.89-21.97 267.1-22.31 266.31-22.66 265.4-22.66L265.4-22.66 263.64-22.66Q262.74-22.66 261.95-22.39 261.15-22.12 260.57-21.62 259.98-21.12 259.64-20.41 259.3-19.7 259.3-18.8L259.3-18.8Q259.3-17.5 259.88-16.69 260.47-15.87 261.43-15.31 262.4-14.75 263.63-14.37 264.87-13.99 266.15-13.59 267.43-13.18 268.66-12.67 269.89-12.16 270.86-11.35 271.82-10.55 272.41-9.34 272.99-8.13 272.99-6.35ZM302.09 0L299.36 0Q297.99 0 296.78-0.51 295.57-1.03 294.68-1.93 293.79-2.83 293.27-4.03 292.74-5.22 292.74-6.59L292.74-6.59 292.74-22.14 288.25-22.14 288.25-25 292.74-25 292.74-31.01 295.74-31.49 295.74-25 302.09-25 302.09-22.14 295.74-22.14 295.74-6.45Q295.74-5.69 296.02-5.04 296.31-4.39 296.79-3.91 297.28-3.42 297.94-3.14 298.6-2.86 299.36-2.86L299.36-2.86 302.09-2.86 302.09 0ZM324.31 0L321.3 0 321.3-18.31Q321.3-19.21 320.96-20.01 320.62-20.8 320.03-21.39 319.45-21.97 318.65-22.31 317.86-22.66 316.96-22.66L316.96-22.66 314.96-22.66Q314.05-22.66 313.26-22.31 312.47-21.97 311.88-21.39 311.29-20.8 310.95-20.01 310.61-19.21 310.61-18.31L310.61-18.31 310.61 0 307.61 0 307.61-35.01 310.61-35.01 310.61-22.9Q311.63-24.12 313.08-24.8 314.52-25.49 316.2-25.49L316.2-25.49 316.96-25.49Q318.47-25.49 319.81-24.91 321.16-24.34 322.16-23.34 323.16-22.34 323.73-21 324.31-19.65 324.31-18.14L324.31-18.14 324.31 0ZM347.01-6.86L347.01-6.86Q347.01-5.35 346.43-4 345.86-2.66 344.86-1.66 343.86-0.66 342.52-0.09 341.17 0.49 339.66 0.49L339.66 0.49 337.66 0.49Q336.14 0.49 334.8-0.09 333.46-0.66 332.46-1.66 331.46-2.66 330.88-4 330.31-5.35 330.31-6.86L330.31-6.86 330.31-18.14Q330.31-19.65 330.88-21 331.46-22.34 332.46-23.34 333.46-24.34 334.8-24.91 336.14-25.49 337.66-25.49L337.66-25.49 339.66-25.49Q341.17-25.49 342.52-24.91 343.86-24.34 344.86-23.34 345.86-22.34 346.43-21 347.01-19.65 347.01-18.14L347.01-18.14 347.01-12.26 333.31-12.26 333.31-6.69Q333.31-5.79 333.65-4.99 334-4.2 334.58-3.61 335.17-3.03 335.96-2.69 336.75-2.34 337.66-2.34L337.66-2.34 339.66-2.34Q340.56-2.34 341.36-2.69 342.15-3.03 342.74-3.61 343.32-4.2 343.66-4.99 344.01-5.79 344.01-6.69L344.01-6.69 344.01-8.35 347.01-7.86 347.01-6.86ZM344.01-14.6L344.01-18.31Q344.01-19.21 343.66-20.01 343.32-20.8 342.74-21.39 342.15-21.97 341.36-22.31 340.56-22.66 339.66-22.66L339.66-22.66 337.66-22.66Q336.75-22.66 335.96-22.31 335.17-21.97 334.58-21.39 334-20.8 333.65-20.01 333.31-19.21 333.31-18.31L333.31-18.31 333.31-14.6 344.01-14.6ZM368.76-31.01L365.27-31.01 365.27-35.01 368.76-35.01 368.76-31.01ZM368.51 0L365.51 0 365.51-25 368.51-25 368.51 0ZM392.22 0L389.21 0 389.21-18.31Q389.21-19.21 388.87-20.01 388.53-20.8 387.94-21.39 387.36-21.97 386.56-22.31 385.77-22.66 384.87-22.66L384.87-22.66 382.87-22.66Q381.96-22.66 381.17-22.31 380.37-21.97 379.79-21.39 379.2-20.8 378.86-20.01 378.52-19.21 378.52-18.31L378.52-18.31 378.52 0 375.52 0 375.52-25 376.52-25 378.15-22.46Q379.18-23.85 380.73-24.67 382.28-25.49 384.11-25.49L384.11-25.49 384.87-25.49Q386.38-25.49 387.72-24.91 389.07-24.34 390.07-23.34 391.07-22.34 391.64-21 392.22-19.65 392.22-18.14L392.22-18.14 392.22 0ZM409.57-32.15L406.81-32.15Q406.06-32.15 405.41-31.87 404.76-31.59 404.27-31.1 403.79-30.62 403.5-29.96 403.22-29.3 403.22-28.54L403.22-28.54 403.22-25 409.06-25 409.06-22.14 403.22-22.14 403.22 0 400.22 0 400.22-22.14 395.7-22.14 395.7-25 400.22-25 400.22-28.39Q400.22-29.76 400.73-30.97 401.25-32.18 402.15-33.08 403.05-33.98 404.25-34.5 405.45-35.01 406.81-35.01L406.81-35.01 409.57-35.01 409.57-32.15ZM429.27-6.86L429.27-6.86Q429.27-5.35 428.7-4 428.12-2.66 427.12-1.66 426.12-0.66 424.78-0.09 423.44 0.49 421.92 0.49L421.92 0.49 419.92 0.49Q418.41 0.49 417.06-0.09 415.72-0.66 414.72-1.66 413.72-2.66 413.15-4 412.57-5.35 412.57-6.86L412.57-6.86 412.57-18.14Q412.57-19.65 413.15-21 413.72-22.34 414.72-23.34 415.72-24.34 417.06-24.91 418.41-25.49 419.92-25.49L419.92-25.49 421.92-25.49Q423.44-25.49 424.78-24.91 426.12-24.34 427.12-23.34 428.12-22.34 428.7-21 429.27-19.65 429.27-18.14L429.27-18.14 429.27-6.86ZM426.27-6.69L426.27-18.31Q426.27-19.21 425.93-20.01 425.58-20.8 425-21.39 424.41-21.97 423.62-22.31 422.83-22.66 421.92-22.66L421.92-22.66 419.92-22.66Q419.02-22.66 418.22-22.31 417.43-21.97 416.84-21.39 416.26-20.8 415.92-20.01 415.58-19.21 415.58-18.31L415.58-18.31 415.58-6.69Q415.58-5.79 415.92-4.99 416.26-4.2 416.84-3.61 417.43-3.03 418.22-2.69 419.02-2.34 419.92-2.34L419.92-2.34 421.92-2.34Q422.83-2.34 423.62-2.69 424.41-3.03 425-3.61 425.58-4.2 425.93-4.99 426.27-5.79 426.27-6.69L426.27-6.69ZM445.63-22.14L442.62-22.14Q441.72-22.14 440.93-21.8 440.13-21.46 439.55-20.87 438.96-20.29 438.62-19.49 438.28-18.7 438.28-17.8L438.28-17.8 438.28 0 435.27 0 435.27-25 436.28-25 437.91-22.46Q438.94-23.85 440.49-24.67 442.04-25.49 443.87-25.49L443.87-25.49 445.63-25.49 445.63-22.14ZM479.02 0L476.02 0 476.02-18.31Q476.02-19.21 475.68-20.01 475.34-20.8 474.75-21.39 474.16-21.97 473.37-22.31 472.58-22.66 471.67-22.66L471.67-22.66 470.18-22.66Q469.28-22.66 468.49-22.31 467.69-21.97 467.1-21.39 466.5-20.8 466.16-20.01 465.81-19.21 465.81-18.31L465.81-18.31 465.81 0 462.84 0 462.84-18.31Q462.84-19.21 462.49-20.01 462.15-20.8 461.55-21.39 460.96-21.97 460.16-22.31 459.37-22.66 458.47-22.66L458.47-22.66 456.98-22.66Q456.07-22.66 455.28-22.31 454.49-21.97 453.9-21.39 453.31-20.8 452.97-20.01 452.63-19.21 452.63-18.31L452.63-18.31 452.63 0 449.63 0 449.63-25 450.63-25 452.26-22.46Q453.29-23.85 454.84-24.67 456.39-25.49 458.22-25.49L458.22-25.49 458.47-25.49Q460.59-25.49 462.3-24.44 464.01-23.39 464.94-21.66L464.94-21.66Q465.4-22.51 466.08-23.22 466.77-23.93 467.6-24.43 468.43-24.93 469.4-25.21 470.38-25.49 471.43-25.49L471.43-25.49 471.67-25.49Q473.19-25.49 474.53-24.91 475.87-24.34 476.87-23.34 477.87-22.34 478.45-21 479.02-19.65 479.02-18.14L479.02-18.14 479.02 0ZM501.72 0L500.72 0 499.06-2.49Q498.04-1.15 496.5-0.33 494.96 0.49 493.13 0.49L493.13 0.49 492.37 0.49Q490.86 0.49 489.52-0.09 488.17-0.66 487.17-1.66 486.17-2.66 485.6-4 485.03-5.35 485.03-6.86L485.03-6.86 485.03-7.1Q485.03-8.62 485.6-9.96 486.17-11.3 487.17-12.3 488.17-13.31 489.52-13.88 490.86-14.45 492.37-14.45L492.37-14.45 498.72-14.45 498.72-18.31Q498.72-19.21 498.38-20.01 498.04-20.8 497.45-21.39 496.87-21.97 496.07-22.31 495.28-22.66 494.38-22.66L494.38-22.66 492.62-22.66Q491.71-22.66 490.92-22.31 490.13-21.97 489.54-21.39 488.96-20.8 488.61-20.01 488.27-19.21 488.27-18.31L488.27-18.31 488.27-17.41 485.27-17.9 485.27-18.14Q485.27-19.65 485.84-21 486.42-22.34 487.42-23.34 488.42-24.34 489.76-24.91 491.1-25.49 492.62-25.49L492.62-25.49 494.38-25.49Q495.89-25.49 497.23-24.91 498.58-24.34 499.58-23.34 500.58-22.34 501.15-21 501.72-19.65 501.72-18.14L501.72-18.14 501.72 0ZM498.72-6.69L498.72-12.11 492.37-12.11Q491.47-12.11 490.68-11.77 489.88-11.43 489.3-10.83 488.71-10.23 488.37-9.44 488.03-8.64 488.03-7.74L488.03-7.74 488.03-6.69Q488.03-5.79 488.37-4.99 488.71-4.2 489.3-3.61 489.88-3.03 490.68-2.69 491.47-2.34 492.37-2.34L492.37-2.34 494.38-2.34Q495.28-2.34 496.07-2.69 496.87-3.03 497.45-3.61 498.04-4.2 498.38-4.99 498.72-5.79 498.72-6.69L498.72-6.69ZM519.57 0L516.83 0Q515.47 0 514.26-0.51 513.05-1.03 512.16-1.93 511.27-2.83 510.74-4.03 510.22-5.22 510.22-6.59L510.22-6.59 510.22-22.14 505.73-22.14 505.73-25 510.22-25 510.22-31.01 513.22-31.49 513.22-25 519.57-25 519.57-22.14 513.22-22.14 513.22-6.45Q513.22-5.69 513.5-5.04 513.78-4.39 514.27-3.91 514.76-3.42 515.42-3.14 516.08-2.86 516.83-2.86L516.83-2.86 519.57-2.86 519.57 0ZM529.33-31.01L525.84-31.01 525.84-35.01 529.33-35.01 529.33-31.01ZM529.09 0L526.08 0 526.08-25 529.09-25 529.09 0ZM552.79-6.86L552.79-6.86Q552.79-5.35 552.22-4 551.64-2.66 550.64-1.66 549.64-0.66 548.3-0.09 546.96 0.49 545.44 0.49L545.44 0.49 543.44 0.49Q541.93 0.49 540.58-0.09 539.24-0.66 538.24-1.66 537.24-2.66 536.67-4 536.09-5.35 536.09-6.86L536.09-6.86 536.09-18.14Q536.09-19.65 536.67-21 537.24-22.34 538.24-23.34 539.24-24.34 540.58-24.91 541.93-25.49 543.44-25.49L543.44-25.49 545.44-25.49Q546.96-25.49 548.3-24.91 549.64-24.34 550.64-23.34 551.64-22.34 552.22-21 552.79-19.65 552.79-18.14L552.79-18.14 552.79-6.86ZM549.79-6.69L549.79-18.31Q549.79-19.21 549.45-20.01 549.1-20.8 548.52-21.39 547.93-21.97 547.14-22.31 546.35-22.66 545.44-22.66L545.44-22.66 543.44-22.66Q542.54-22.66 541.74-22.31 540.95-21.97 540.36-21.39 539.78-20.8 539.44-20.01 539.1-19.21 539.1-18.31L539.1-18.31 539.1-6.69Q539.1-5.79 539.44-4.99 539.78-4.2 540.36-3.61 540.95-3.03 541.74-2.69 542.54-2.34 543.44-2.34L543.44-2.34 545.44-2.34Q546.35-2.34 547.14-2.69 547.93-3.03 548.52-3.61 549.1-4.2 549.45-4.99 549.79-5.79 549.79-6.69L549.79-6.69ZM575.49 0L572.49 0 572.49-18.31Q572.49-19.21 572.15-20.01 571.81-20.8 571.22-21.39 570.64-21.97 569.84-22.31 569.05-22.66 568.15-22.66L568.15-22.66 566.14-22.66Q565.24-22.66 564.45-22.31 563.65-21.97 563.07-21.39 562.48-20.8 562.14-20.01 561.8-19.21 561.8-18.31L561.8-18.31 561.8 0 558.79 0 558.79-25 559.8-25 561.43-22.46Q562.46-23.85 564.01-24.67 565.56-25.49 567.39-25.49L567.39-25.49 568.15-25.49Q569.66-25.49 571-24.91 572.34-24.34 573.35-23.34 574.35-22.34 574.92-21 575.49-19.65 575.49-18.14L575.49-18.14 575.49 0ZM609.69-6.86L609.69-6.86Q609.69-5.35 609.12-4 608.55-2.66 607.54-1.66 606.54-0.66 605.2-0.09 603.86 0.49 602.34 0.49L602.34 0.49 600.34 0.49Q598.83 0.49 597.49-0.09 596.14-0.66 595.14-1.66 594.14-2.66 593.57-4 592.99-5.35 592.99-6.86L592.99-6.86 592.99-18.14Q592.99-19.65 593.57-21 594.14-22.34 595.14-23.34 596.14-24.34 597.49-24.91 598.83-25.49 600.34-25.49L600.34-25.49 602.34-25.49Q603.86-25.49 605.2-24.91 606.54-24.34 607.54-23.34 608.55-22.34 609.12-21 609.69-19.65 609.69-18.14L609.69-18.14 609.69-6.86ZM606.69-6.69L606.69-18.31Q606.69-19.21 606.35-20.01 606.01-20.8 605.42-21.39 604.83-21.97 604.04-22.31 603.25-22.66 602.34-22.66L602.34-22.66 600.34-22.66Q599.44-22.66 598.65-22.31 597.85-21.97 597.27-21.39 596.68-20.8 596.34-20.01 596-19.21 596-18.31L596-18.31 596-6.69Q596-5.79 596.34-4.99 596.68-4.2 597.27-3.61 597.85-3.03 598.65-2.69 599.44-2.34 600.34-2.34L600.34-2.34 602.34-2.34Q603.25-2.34 604.04-2.69 604.83-3.03 605.42-3.61 606.01-4.2 606.35-4.99 606.69-5.79 606.69-6.69L606.69-6.69ZM645.09-25L636.74 0 635.11 0 629.25-18.85 629.15-20.14 629.05-18.85 623.19 0 621.53 0 613.18-25 616.23-25 622.19-6.1 622.29-4.81 622.39-6.1 628.25-25 630.05-25 635.89-6.1 635.98-4.81 636.08-6.1 642.04-25 645.09-25ZM665.3 0L662.3 0 662.3-18.31Q662.3-19.21 661.96-20.01 661.62-20.8 661.03-21.39 660.44-21.97 659.65-22.31 658.86-22.66 657.95-22.66L657.95-22.66 655.95-22.66Q655.05-22.66 654.26-22.31 653.46-21.97 652.88-21.39 652.29-20.8 651.95-20.01 651.61-19.21 651.61-18.31L651.61-18.31 651.61 0 648.6 0 648.6-25 649.61-25 651.24-22.46Q652.27-23.85 653.82-24.67 655.37-25.49 657.2-25.49L657.2-25.49 657.95-25.49Q659.47-25.49 660.81-24.91 662.15-24.34 663.15-23.34 664.16-22.34 664.73-21 665.3-19.65 665.3-18.14L665.3-18.14 665.3 0ZM688.49-6.35L688.49-6.35Q688.49-4.83 687.88-3.58 687.27-2.32 686.22-1.42 685.17-0.51 683.79-0.01 682.42 0.49 680.9 0.49L680.9 0.49 678.9 0.49Q677.39 0.49 676.01-0.09 674.63-0.66 673.59-1.66 672.55-2.66 671.93-4 671.31-5.35 671.31-6.86L671.31-6.86 671.31-7.86 674.31-8.35 674.31-6.69Q674.31-5.79 674.69-4.99 675.07-4.2 675.7-3.61 676.34-3.03 677.17-2.69 678-2.34 678.9-2.34L678.9-2.34 680.9-2.34Q681.8-2.34 682.63-2.61 683.46-2.88 684.11-3.38 684.76-3.88 685.14-4.59 685.52-5.3 685.52-6.2L685.52-6.2Q685.52-7.54 684.93-8.4 684.34-9.25 683.38-9.83 682.42-10.4 681.18-10.78 679.95-11.16 678.66-11.54 677.36-11.91 676.13-12.4 674.9-12.89 673.93-13.68 672.97-14.48 672.38-15.67 671.79-16.87 671.79-18.65L671.79-18.65Q671.79-20.17 672.38-21.42 672.97-22.68 673.97-23.58 674.97-24.49 676.3-24.99 677.63-25.49 679.14-25.49L679.14-25.49 680.9-25.49Q682.42-25.49 683.76-24.91 685.1-24.34 686.1-23.34 687.1-22.34 687.68-21 688.25-19.65 688.25-18.14L688.25-18.14 688.25-18.04 685.25-17.55 685.25-18.31Q685.25-19.21 684.91-20.01 684.56-20.8 683.98-21.39 683.39-21.97 682.6-22.31 681.8-22.66 680.9-22.66L680.9-22.66 679.14-22.66Q678.24-22.66 677.45-22.39 676.65-22.12 676.07-21.62 675.48-21.12 675.14-20.41 674.8-19.7 674.8-18.8L674.8-18.8Q674.8-17.5 675.38-16.69 675.97-15.87 676.93-15.31 677.9-14.75 679.13-14.37 680.36-13.99 681.65-13.59 682.93-13.18 684.16-12.67 685.39-12.16 686.36-11.35 687.32-10.55 687.91-9.34 688.49-8.13 688.49-6.35ZM717.59 0L714.86 0Q713.49 0 712.28-0.51 711.07-1.03 710.18-1.93 709.29-2.83 708.77-4.03 708.24-5.22 708.24-6.59L708.24-6.59 708.24-22.14 703.75-22.14 703.75-25 708.24-25 708.24-31.01 711.24-31.49 711.24-25 717.59-25 717.59-22.14 711.24-22.14 711.24-6.45Q711.24-5.69 711.52-5.04 711.8-4.39 712.29-3.91 712.78-3.42 713.44-3.14 714.1-2.86 714.86-2.86L714.86-2.86 717.59-2.86 717.59 0ZM739.81 0L736.8 0 736.8-18.31Q736.8-19.21 736.46-20.01 736.12-20.8 735.53-21.39 734.95-21.97 734.15-22.31 733.36-22.66 732.46-22.66L732.46-22.66 730.45-22.66Q729.55-22.66 728.76-22.31 727.96-21.97 727.38-21.39 726.79-20.8 726.45-20.01 726.11-19.21 726.11-18.31L726.11-18.31 726.11 0 723.11 0 723.11-35.01 726.11-35.01 726.11-22.9Q727.13-24.12 728.57-24.8 730.02-25.49 731.7-25.49L731.7-25.49 732.46-25.49Q733.97-25.49 735.31-24.91 736.66-24.34 737.66-23.34 738.66-22.34 739.23-21 739.81-19.65 739.81-18.14L739.81-18.14 739.81 0ZM762.51-6.86L762.51-6.86Q762.51-5.35 761.93-4 761.36-2.66 760.36-1.66 759.36-0.66 758.02-0.09 756.67 0.49 755.16 0.49L755.16 0.49 753.16 0.49Q751.64 0.49 750.3-0.09 748.96-0.66 747.96-1.66 746.96-2.66 746.38-4 745.81-5.35 745.81-6.86L745.81-6.86 745.81-18.14Q745.81-19.65 746.38-21 746.96-22.34 747.96-23.34 748.96-24.34 750.3-24.91 751.64-25.49 753.16-25.49L753.16-25.49 755.16-25.49Q756.67-25.49 758.02-24.91 759.36-24.34 760.36-23.34 761.36-22.34 761.93-21 762.51-19.65 762.51-18.14L762.51-18.14 762.51-12.26 748.81-12.26 748.81-6.69Q748.81-5.79 749.15-4.99 749.49-4.2 750.08-3.61 750.67-3.03 751.46-2.69 752.25-2.34 753.16-2.34L753.16-2.34 755.16-2.34Q756.06-2.34 756.86-2.69 757.65-3.03 758.24-3.61 758.82-4.2 759.16-4.99 759.5-5.79 759.5-6.69L759.5-6.69 759.5-8.35 762.51-7.86 762.51-6.86ZM759.5-14.6L759.5-18.31Q759.5-19.21 759.16-20.01 758.82-20.8 758.24-21.39 757.65-21.97 756.86-22.31 756.06-22.66 755.16-22.66L755.16-22.66 753.16-22.66Q752.25-22.66 751.46-22.31 750.67-21.97 750.08-21.39 749.49-20.8 749.15-20.01 748.81-19.21 748.81-18.31L748.81-18.31 748.81-14.6 759.5-14.6ZM809.4-25L801.05 0 799.42 0 793.56-18.85 793.46-20.14 793.36-18.85 787.5 0 785.84 0 777.49-25 780.54-25 786.5-6.1 786.6-4.81 786.7-6.1 792.56-25 794.36-25 800.2-6.1 800.3-4.81 800.39-6.1 806.35-25 809.4-25ZM829.61-6.86L829.61-6.86Q829.61-5.35 829.04-4 828.47-2.66 827.47-1.66 826.46-0.66 825.12-0.09 823.78 0.49 822.27 0.49L822.27 0.49 820.26 0.49Q818.75 0.49 817.41-0.09 816.06-0.66 815.06-1.66 814.06-2.66 813.49-4 812.92-5.35 812.92-6.86L812.92-6.86 812.92-18.14Q812.92-19.65 813.49-21 814.06-22.34 815.06-23.34 816.06-24.34 817.41-24.91 818.75-25.49 820.26-25.49L820.26-25.49 822.27-25.49Q823.78-25.49 825.12-24.91 826.46-24.34 827.47-23.34 828.47-22.34 829.04-21 829.61-19.65 829.61-18.14L829.61-18.14 829.61-6.86ZM826.61-6.69L826.61-18.31Q826.61-19.21 826.27-20.01 825.93-20.8 825.34-21.39 824.76-21.97 823.96-22.31 823.17-22.66 822.27-22.66L822.27-22.66 820.26-22.66Q819.36-22.66 818.57-22.31 817.77-21.97 817.19-21.39 816.6-20.8 816.26-20.01 815.92-19.21 815.92-18.31L815.92-18.31 815.92-6.69Q815.92-5.79 816.26-4.99 816.6-4.2 817.19-3.61 817.77-3.03 818.57-2.69 819.36-2.34 820.26-2.34L820.26-2.34 822.27-2.34Q823.17-2.34 823.96-2.69 824.76-3.03 825.34-3.61 825.93-4.2 826.27-4.99 826.61-5.79 826.61-6.69L826.61-6.69ZM845.97-22.14L842.97-22.14Q842.06-22.14 841.27-21.8 840.48-21.46 839.89-20.87 839.3-20.29 838.96-19.49 838.62-18.7 838.62-17.8L838.62-17.8 838.62 0 835.62 0 835.62-25 836.62-25 838.25-22.46Q839.28-23.85 840.83-24.67 842.38-25.49 844.21-25.49L844.21-25.49 845.97-25.49 845.97-22.14ZM853.97 0L850.97 0 850.97-35.01 853.97-35.01 853.97 0ZM877.68 0L876.68 0 875.02-2.54Q873.99-1.15 872.45-0.33 870.92 0.49 869.08 0.49L869.08 0.49 868.33 0.49Q866.81 0.49 865.47-0.09 864.13-0.66 863.13-1.66 862.13-2.66 861.55-4 860.98-5.35 860.98-6.86L860.98-6.86 860.98-18.14Q860.98-19.65 861.55-21 862.13-22.34 863.13-23.34 864.13-24.34 865.47-24.91 866.81-25.49 868.33-25.49L868.33-25.49 869.08-25.49Q870.77-25.49 872.21-24.8 873.65-24.12 874.68-22.9L874.68-22.9 874.68-35.01 877.68-35.01 877.68 0ZM874.68-6.69L874.68-18.31Q874.68-19.21 874.33-20.01 873.99-20.8 873.41-21.39 872.82-21.97 872.03-22.31 871.23-22.66 870.33-22.66L870.33-22.66 868.33-22.66Q867.42-22.66 866.63-22.31 865.84-21.97 865.25-21.39 864.67-20.8 864.32-20.01 863.98-19.21 863.98-18.31L863.98-18.31 863.98-6.69Q863.98-5.79 864.32-4.99 864.67-4.2 865.25-3.61 865.84-3.03 866.63-2.69 867.42-2.34 868.33-2.34L868.33-2.34 870.33-2.34Q871.23-2.34 872.03-2.69 872.82-3.03 873.41-3.61 873.99-4.2 874.33-4.99 874.68-5.79 874.68-6.69L874.68-6.69Z" opacity="1" transform="matrix(1,0,0,1,0,0)" fill="#61777f" class="slogan-text-1" data-fill-palette-color="secondary" id="text-1"></path></svg></g></svg></g></svg></g></svg></g><g></g></svg></g><defs></defs></svg><rect width="395.52" height="141.99025925381125" fill="none" stroke="none" visibility="hidden"></rect></g></svg></g></svg>